<svg width="251" height="251" viewBox="0 0 251 251" fill="none" xmlns="http://www.w3.org/2000/svg">
<g clip-path="url(#clip0_421_611)">
<path d="M46.6601 120.546C49.2801 81.0979 80.9701 49.4901 120.46 47.0102V0.943359C55.5001 3.50318 3.28008 55.6197 0.580078 120.546H46.6601Z" fill="#201637"/>
<path d="M120.19 204.85C80.7401 202.23 49.1301 170.543 46.6501 131.055H0.580078C3.14008 196.011 55.2601 248.227 120.19 250.927V204.85Z" fill="#201637"/>
<path d="M130.969 47.0202C170.419 49.6401 202.029 81.3279 204.509 120.816H250.579C248.019 55.8596 195.899 3.64318 130.969 0.943359V47.0202Z" fill="#201637"/>
<path d="M250.579 204.85C211.129 202.23 179.519 170.543 177.039 131.055H130.969C133.529 196.011 185.649 248.227 250.579 250.927V204.85Z" fill="#201637"/>
</g>
<defs>
<clipPath id="clip0_421_611">
<rect width="251" height="251" fill="white"/>
</clipPath>
</defs>
</svg>
