<svg xmlns="http://www.w3.org/2000/svg" width="1500" height="720" viewBox="0 0 1500 720">
  <rect width="1500" height="720" fill="#ffffff"/>
  <text x="46.0" y="52.0" font-family="Virgil GS, Virgil, Excalifont, Comic Sans MS, Bradley Hand, cursive" font-size="25" fill="#1e1e1e" text-anchor="start" font-weight="normal">One request carries two payloads, and each was missing once</text>
  <text x="46.0" y="78.0" font-family="Virgil GS, Virgil, Excalifont, Comic Sans MS, Bradley Hand, cursive" font-size="15" fill="#5c5c5c" text-anchor="start" font-weight="normal">a version pins the data AND the definition — either one alone renders a state that never existed</text>
  <text x="58.0" y="152.0" font-family="Virgil GS, Virgil, Excalifont, Comic Sans MS, Bradley Hand, cursive" font-size="15" fill="#1e1e1e" text-anchor="start" font-weight="bold">a row in the timeline</text>
  <rect x="58.0" y="168.0" width="300.0" height="96.0" rx="6" fill="#f3f0ff"/>
  <path d="M58.0,167.8 C157.5,167.8 257.9,167.5 357.3,167.9" fill="none" stroke="#1e1e1e" stroke-width="1.7" stroke-linecap="round"/>
  <path d="M58.0,168.1 C156.5,166.7 257.2,169.5 358.7,168.6" fill="none" stroke="#1e1e1e" stroke-width="1.7" stroke-linecap="round"/>
  <path d="M358.7,167.3 C358.2,199.1 358.1,231.5 357.8,264.3" fill="none" stroke="#1e1e1e" stroke-width="1.7" stroke-linecap="round"/>
  <path d="M358.5,168.7 C358.3,200.2 358.8,231.2 357.3,263.7" fill="none" stroke="#1e1e1e" stroke-width="1.7" stroke-linecap="round"/>
  <path d="M358.2,264.6 C257.6,263.6 158.1,263.2 58.7,264.6" fill="none" stroke="#1e1e1e" stroke-width="1.7" stroke-linecap="round"/>
  <path d="M358.3,263.7 C257.1,264.8 158.9,264.3 58.4,263.6" fill="none" stroke="#1e1e1e" stroke-width="1.7" stroke-linecap="round"/>
  <path d="M57.7,264.4 C58.2,231.2 58.1,198.5 57.6,168.4" fill="none" stroke="#1e1e1e" stroke-width="1.7" stroke-linecap="round"/>
  <path d="M58.0,264.7 C59.0,232.3 58.4,199.1 58.8,168.1" fill="none" stroke="#1e1e1e" stroke-width="1.7" stroke-linecap="round"/>
  <text x="76.0" y="196.0" font-family="Virgil GS, Virgil, Excalifont, Comic Sans MS, Bradley Hand, cursive" font-size="17" fill="#1e1e1e" text-anchor="start" font-weight="bold">v1 Survey</text>
  <text x="76.0" y="220.0" font-family="Virgil GS, Virgil, Excalifont, Comic Sans MS, Bradley Hand, cursive" font-size="13" fill="#5c5c5c" text-anchor="start" font-weight="normal">Jul 29 · 5 components</text>
  <text x="76.0" y="242.0" font-family="Virgil GS, Virgil, Excalifont, Comic Sans MS, Bradley Hand, cursive" font-size="13" fill="#5c5c5c" text-anchor="start" font-weight="normal">1 data collection pinned</text>
  <circle cx="330" cy="196" r="9" fill="#ffd43b" stroke="#1e1e1e" stroke-width="1.4"/>
  <text x="58.0" y="316.0" font-family="Virgil GS, Virgil, Excalifont, Comic Sans MS, Bradley Hand, cursive" font-size="15" fill="#1e1e1e" text-anchor="start" font-weight="bold">what it recorded</text>
  <path d="M79.5,371.7 C164.5,373.2 249.4,372.7 334.4,372.1" fill="none" stroke="#5c5c5c" stroke-width="1.4" stroke-linecap="round"/>
  <path d="M79.7,372.2 C165.3,371.8 250.3,370.9 334.0,372.2" fill="none" stroke="#5c5c5c" stroke-width="1.4" stroke-linecap="round"/>
  <circle cx="96.0" cy="372.0" r="7" fill="#ffd43b" stroke="#1e1e1e" stroke-width="1.4"/>
  <circle cx="96.0" cy="372.0" r="13" fill="none" stroke="#1e1e1e" stroke-width="1.3" stroke-dasharray="3 3"/>
  <text x="96.0" y="402.0" font-family="Virgil GS, Virgil, Excalifont, Comic Sans MS, Bradley Hand, cursive" font-size="13" fill="#5c5c5c" text-anchor="middle" font-weight="normal">v0 · 50</text>
  <circle cx="170.0" cy="372.0" r="5" fill="#ffffff" stroke="#1e1e1e" stroke-width="1.4"/>
  <text x="170.0" y="402.0" font-family="Virgil GS, Virgil, Excalifont, Comic Sans MS, Bradley Hand, cursive" font-size="13" fill="#5c5c5c" text-anchor="middle" font-weight="normal">v1 · 100</text>
  <circle cx="244.0" cy="372.0" r="5" fill="#ffffff" stroke="#1e1e1e" stroke-width="1.4"/>
  <text x="244.0" y="402.0" font-family="Virgil GS, Virgil, Excalifont, Comic Sans MS, Bradley Hand, cursive" font-size="13" fill="#5c5c5c" text-anchor="middle" font-weight="normal">v2 · 100</text>
  <circle cx="318.0" cy="372.0" r="5" fill="#ffffff" stroke="#1e1e1e" stroke-width="1.4"/>
  <text x="318.0" y="402.0" font-family="Virgil GS, Virgil, Excalifont, Comic Sans MS, Bradley Hand, cursive" font-size="13" fill="#5c5c5c" text-anchor="middle" font-weight="normal">v3 · 150</text>
  <text x="58.0" y="348.0" font-family="Virgil GS, Virgil, Excalifont, Comic Sans MS, Bradley Hand, cursive" font-size="13" fill="#5c5c5c" text-anchor="start" font-weight="normal">the data:</text>
  <text x="58.0" y="430.0" font-family="Virgil GS, Virgil, Excalifont, Comic Sans MS, Bradley Hand, cursive" font-size="13" fill="#5c5c5c" text-anchor="start" font-weight="normal">the layout:</text>
  <rect x="96.0" y="446.0" width="232.0" height="150.0" rx="6" fill="#ffffff"/>
  <path d="M95.2,445.6 C173.2,446.7 251.6,445.4 327.8,446.8" fill="none" stroke="#1e1e1e" stroke-width="1.7" stroke-linecap="round"/>
  <path d="M95.4,445.4 C174.8,446.6 249.6,447.3 328.5,445.8" fill="none" stroke="#1e1e1e" stroke-width="1.7" stroke-linecap="round"/>
  <path d="M327.3,445.2 C327.7,495.3 326.4,544.8 327.3,595.5" fill="none" stroke="#1e1e1e" stroke-width="1.7" stroke-linecap="round"/>
  <path d="M328.0,446.1 C328.0,496.0 328.9,547.0 327.2,595.3" fill="none" stroke="#1e1e1e" stroke-width="1.7" stroke-linecap="round"/>
  <path d="M328.6,595.6 C251.7,597.3 172.8,597.2 95.3,595.4" fill="none" stroke="#1e1e1e" stroke-width="1.7" stroke-linecap="round"/>
  <path d="M328.6,596.1 C249.4,594.6 173.5,595.2 96.1,596.4" fill="none" stroke="#1e1e1e" stroke-width="1.7" stroke-linecap="round"/>
  <path d="M96.1,596.7 C96.4,547.6 94.7,496.0 95.9,445.8" fill="none" stroke="#1e1e1e" stroke-width="1.7" stroke-linecap="round"/>
  <path d="M96.8,595.4 C95.4,547.1 96.0,494.8 95.9,446.5" fill="none" stroke="#1e1e1e" stroke-width="1.7" stroke-linecap="round"/>
  <rect x="109.9" y="467.0" width="92.8" height="36.0" rx="3" fill="#f3f0ff" opacity="0.75"/>
  <path d="M109.6,467.2 C141.4,466.9 171.9,467.4 202.9,467.0" fill="none" stroke="#1e1e1e" stroke-width="1.2" stroke-linecap="round"/>
  <path d="M202.3,466.7 C202.1,478.6 203.2,490.5 202.7,503.0" fill="none" stroke="#1e1e1e" stroke-width="1.2" stroke-linecap="round"/>
  <path d="M203.1,502.8 C171.4,503.1 141.2,503.7 110.1,502.6" fill="none" stroke="#1e1e1e" stroke-width="1.2" stroke-linecap="round"/>
  <path d="M110.2,503.2 C109.5,491.0 109.2,479.5 110.0,467.0" fill="none" stroke="#1e1e1e" stroke-width="1.2" stroke-linecap="round"/>
  <rect x="216.6" y="467.0" width="97.4" height="36.0" rx="3" fill="#f3f0ff" opacity="0.75"/>
  <path d="M217.0,467.2 C249.6,467.1 281.5,467.3 313.8,467.4" fill="none" stroke="#1e1e1e" stroke-width="1.2" stroke-linecap="round"/>
  <path d="M314.0,466.7 C314.1,478.7 314.8,491.1 314.4,503.3" fill="none" stroke="#1e1e1e" stroke-width="1.2" stroke-linecap="round"/>
  <path d="M314.4,503.1 C282.0,502.8 248.9,503.6 216.5,502.8" fill="none" stroke="#1e1e1e" stroke-width="1.2" stroke-linecap="round"/>
  <path d="M216.6,503.2 C216.2,491.6 217.2,479.7 216.5,467.1" fill="none" stroke="#1e1e1e" stroke-width="1.2" stroke-linecap="round"/>
  <rect x="109.9" y="515.0" width="204.2" height="60.0" rx="3" fill="#f3f0ff" opacity="0.75"/>
  <path d="M109.9,515.1 C177.4,515.0 245.3,515.6 314.4,514.8" fill="none" stroke="#1e1e1e" stroke-width="1.2" stroke-linecap="round"/>
  <path d="M314.4,515.0 C313.8,535.7 314.0,555.0 314.1,574.9" fill="none" stroke="#1e1e1e" stroke-width="1.2" stroke-linecap="round"/>
  <path d="M314.4,575.1 C245.3,575.2 178.6,575.6 110.0,575.1" fill="none" stroke="#1e1e1e" stroke-width="1.2" stroke-linecap="round"/>
  <path d="M109.6,575.1 C109.9,555.1 110.2,534.8 109.7,514.7" fill="none" stroke="#1e1e1e" stroke-width="1.2" stroke-linecap="round"/>
  <text x="470.0" y="152.0" font-family="Virgil GS, Virgil, Excalifont, Comic Sans MS, Bradley Hand, cursive" font-size="15" fill="#1e1e1e" text-anchor="start" font-weight="bold">one render request</text>
  <rect x="470.0" y="168.0" width="320.0" height="200.0" rx="6" fill="#fff9db"/>
  <path d="M469.2,167.4 C576.4,167.1 682.3,168.3 789.3,167.8" fill="none" stroke="#1e1e1e" stroke-width="1.7" stroke-linecap="round"/>
  <path d="M470.0,167.4 C576.3,168.8 683.7,168.7 790.5,167.9" fill="none" stroke="#1e1e1e" stroke-width="1.7" stroke-linecap="round"/>
  <path d="M790.0,167.9 C791.2,233.4 790.4,302.6 790.5,367.8" fill="none" stroke="#1e1e1e" stroke-width="1.7" stroke-linecap="round"/>
  <path d="M790.6,167.4 C790.0,234.5 791.3,300.7 790.3,368.0" fill="none" stroke="#1e1e1e" stroke-width="1.7" stroke-linecap="round"/>
  <path d="M789.8,367.2 C683.8,366.7 576.6,369.5 470.2,367.3" fill="none" stroke="#1e1e1e" stroke-width="1.7" stroke-linecap="round"/>
  <path d="M790.4,367.7 C682.5,368.5 576.7,368.7 470.2,368.7" fill="none" stroke="#1e1e1e" stroke-width="1.7" stroke-linecap="round"/>
  <path d="M470.2,367.2 C468.6,302.0 470.0,233.8 470.6,168.2" fill="none" stroke="#1e1e1e" stroke-width="1.7" stroke-linecap="round"/>
  <path d="M469.3,368.1 C470.4,301.5 471.0,233.4 469.6,168.6" fill="none" stroke="#1e1e1e" stroke-width="1.7" stroke-linecap="round"/>
  <text x="490.0" y="200.0" font-family="Virgil GS, Virgil, Excalifont, Comic Sans MS, Bradley Hand, cursive" font-size="16" fill="#1e1e1e" text-anchor="start" font-weight="bold">POST /render_figure</text>
  <text x="490.0" y="232.0" font-family="Virgil GS, Virgil, Excalifont, Comic Sans MS, Bradley Hand, cursive" font-size="14" fill="#1e1e1e" text-anchor="start" font-weight="normal">as_of_version: v1</text>
  <text x="490.0" y="256.0" font-family="Virgil GS, Virgil, Excalifont, Comic Sans MS, Bradley Hand, cursive" font-size="13" fill="#5c5c5c" text-anchor="start" font-weight="normal">→ every stamp becomes a pin</text>
  <text x="490.0" y="292.0" font-family="Virgil GS, Virgil, Excalifont, Comic Sans MS, Bradley Hand, cursive" font-size="14" fill="#1e1e1e" text-anchor="start" font-weight="normal">component_overrides: {…}</text>
  <text x="490.0" y="316.0" font-family="Virgil GS, Virgil, Excalifont, Comic Sans MS, Bradley Hand, cursive" font-size="13" fill="#5c5c5c" text-anchor="start" font-weight="normal">→ the definition it was saved with</text>
  <text x="490.0" y="348.0" font-family="Virgil GS, Virgil, Excalifont, Comic Sans MS, Bradley Hand, cursive" font-size="13" fill="#c92a2a" text-anchor="start" font-weight="normal">wf_id · dc_id · dc_config refused</text>
  <path d="M369.3,213.8 C397.0,220.1 428.2,224.3 455.7,232.9" fill="none" stroke="#1e1e1e" stroke-width="1.7" stroke-linecap="round"/>
  <path d="M369.2,213.6 C397.8,220.6 428.0,225.4 455.1,232.6" fill="none" stroke="#1e1e1e" stroke-width="1.7" stroke-linecap="round"/>
  <path d="M456.3,232.2 C451.7,228.7 449.8,226.7 445.7,223.0" fill="none" stroke="#1e1e1e" stroke-width="1.7" stroke-linecap="round"/>
  <path d="M456.0,231.9 C451.6,233.8 447.4,234.3 442.5,236.1" fill="none" stroke="#1e1e1e" stroke-width="1.7" stroke-linecap="round"/>
  <path d="M340.9,372.8 C379.6,343.4 419.2,316.9 455.9,292.2" fill="none" stroke="#1e1e1e" stroke-width="1.7" stroke-linecap="round"/>
  <path d="M341.0,372.5 C377.1,344.7 418.3,316.9 456.8,292.3" fill="none" stroke="#1e1e1e" stroke-width="1.7" stroke-linecap="round"/>
  <path d="M455.6,292.4 C451.3,293.4 446.8,293.5 441.8,293.1" fill="none" stroke="#1e1e1e" stroke-width="1.7" stroke-linecap="round"/>
  <path d="M455.6,292.2 C453.8,297.0 452.1,300.8 450.0,304.2" fill="none" stroke="#1e1e1e" stroke-width="1.7" stroke-linecap="round"/>
  <path d="M339.4,499.4 C379.2,440.1 415.4,376.7 456.8,315.3" fill="none" stroke="#1e1e1e" stroke-width="1.7" stroke-linecap="round"/>
  <path d="M339.6,500.3 C380.5,439.1 418.5,378.6 455.8,315.8" fill="none" stroke="#1e1e1e" stroke-width="1.7" stroke-linecap="round"/>
  <path d="M456.1,316.2 C451.8,318.8 448.8,319.7 443.8,322.7" fill="none" stroke="#1e1e1e" stroke-width="1.7" stroke-linecap="round"/>
  <path d="M456.0,315.8 C454.8,319.7 454.7,325.1 455.4,330.3" fill="none" stroke="#1e1e1e" stroke-width="1.7" stroke-linecap="round"/>
  <text x="890.0" y="152.0" font-family="Virgil GS, Virgil, Excalifont, Comic Sans MS, Bradley Hand, cursive" font-size="15" fill="#1e1e1e" text-anchor="start" font-weight="bold">what is drawn</text>
  <rect x="890.0" y="168.0" width="540.0" height="200.0" rx="6" fill="#ebfbee"/>
  <path d="M890.8,167.3 C1071.6,168.4 1249.8,169.1 1430.0,167.3" fill="none" stroke="#1e1e1e" stroke-width="1.7" stroke-linecap="round"/>
  <path d="M889.7,167.4 C1068.9,167.1 1249.8,168.9 1430.1,167.2" fill="none" stroke="#1e1e1e" stroke-width="1.7" stroke-linecap="round"/>
  <path d="M1429.7,168.7 C1430.1,234.8 1429.9,302.8 1430.3,368.1" fill="none" stroke="#1e1e1e" stroke-width="1.7" stroke-linecap="round"/>
  <path d="M1429.4,167.7 C1429.4,235.7 1430.1,302.6 1429.3,367.5" fill="none" stroke="#1e1e1e" stroke-width="1.7" stroke-linecap="round"/>
  <path d="M1430.1,367.3 C1251.0,368.1 1070.4,366.5 890.6,367.9" fill="none" stroke="#1e1e1e" stroke-width="1.7" stroke-linecap="round"/>
  <path d="M1429.8,367.8 C1248.7,367.3 1070.6,368.4 890.6,367.7" fill="none" stroke="#1e1e1e" stroke-width="1.7" stroke-linecap="round"/>
  <path d="M890.4,367.7 C890.7,299.9 891.3,234.5 889.3,168.6" fill="none" stroke="#1e1e1e" stroke-width="1.7" stroke-linecap="round"/>
  <path d="M889.5,367.2 C891.4,300.9 888.7,234.3 890.1,168.3" fill="none" stroke="#1e1e1e" stroke-width="1.7" stroke-linecap="round"/>
  <text x="910.0" y="198.0" font-family="Virgil GS, Virgil, Excalifont, Comic Sans MS, Bradley Hand, cursive" font-size="16" fill="#1e1e1e" text-anchor="start" font-weight="bold">both payloads honoured</text>
  <rect x="910.0" y="214.0" width="200.0" height="138.0" rx="6" fill="#ffffff"/>
  <path d="M909.2,213.9 C977.7,215.5 1042.1,213.1 1110.3,214.1" fill="none" stroke="#1e1e1e" stroke-width="1.7" stroke-linecap="round"/>
  <path d="M909.8,214.2 C975.5,214.9 1044.1,214.8 1110.8,213.6" fill="none" stroke="#1e1e1e" stroke-width="1.7" stroke-linecap="round"/>
  <path d="M1110.4,213.4 C1111.0,258.9 1108.5,305.2 1110.7,351.4" fill="none" stroke="#1e1e1e" stroke-width="1.7" stroke-linecap="round"/>
  <path d="M1110.1,214.6 C1110.1,258.8 1111.1,307.4 1110.1,352.7" fill="none" stroke="#1e1e1e" stroke-width="1.7" stroke-linecap="round"/>
  <path d="M1110.2,352.1 C1043.7,352.3 975.1,352.9 910.2,351.4" fill="none" stroke="#1e1e1e" stroke-width="1.7" stroke-linecap="round"/>
  <path d="M1110.0,352.5 C1042.5,350.8 977.9,351.3 910.0,352.5" fill="none" stroke="#1e1e1e" stroke-width="1.7" stroke-linecap="round"/>
  <path d="M909.5,351.9 C910.3,305.7 911.4,259.8 910.5,214.6" fill="none" stroke="#1e1e1e" stroke-width="1.7" stroke-linecap="round"/>
  <path d="M910.6,351.8 C910.0,305.7 909.6,259.4 910.5,213.3" fill="none" stroke="#1e1e1e" stroke-width="1.7" stroke-linecap="round"/>
  <rect x="922.0" y="233.3" width="80.0" height="33.1" rx="3" fill="#69db7c" opacity="0.75"/>
  <path d="M922.3,233.4 C949.1,232.9 975.3,232.7 1002.1,233.2" fill="none" stroke="#1e1e1e" stroke-width="1.2" stroke-linecap="round"/>
  <path d="M1001.7,233.1 C1002.2,245.0 1002.3,255.5 1001.7,266.7" fill="none" stroke="#1e1e1e" stroke-width="1.2" stroke-linecap="round"/>
  <path d="M1002.4,266.3 C975.8,266.3 949.0,265.9 922.1,266.2" fill="none" stroke="#1e1e1e" stroke-width="1.2" stroke-linecap="round"/>
  <path d="M922.3,266.6 C922.8,255.7 921.5,245.0 921.8,233.5" fill="none" stroke="#1e1e1e" stroke-width="1.2" stroke-linecap="round"/>
  <rect x="1014.0" y="233.3" width="84.0" height="33.1" rx="3" fill="#69db7c" opacity="0.75"/>
  <path d="M1014.3,233.7 C1042.0,234.0 1070.7,233.1 1098.1,233.1" fill="none" stroke="#1e1e1e" stroke-width="1.2" stroke-linecap="round"/>
  <path d="M1098.2,233.4 C1098.6,244.8 1098.5,255.1 1098.2,266.2" fill="none" stroke="#1e1e1e" stroke-width="1.2" stroke-linecap="round"/>
  <path d="M1098.1,266.6 C1069.3,267.1 1042.6,265.9 1014.2,266.8" fill="none" stroke="#1e1e1e" stroke-width="1.2" stroke-linecap="round"/>
  <path d="M1014.0,266.5 C1013.5,255.9 1014.3,244.3 1013.8,233.0" fill="none" stroke="#1e1e1e" stroke-width="1.2" stroke-linecap="round"/>
  <rect x="922.0" y="277.5" width="176.0" height="55.2" rx="3" fill="#69db7c" opacity="0.75"/>
  <path d="M921.8,277.6 C980.9,277.5 1039.7,277.7 1098.3,277.3" fill="none" stroke="#1e1e1e" stroke-width="1.2" stroke-linecap="round"/>
  <path d="M1097.8,277.6 C1097.8,295.7 1098.2,313.8 1098.2,332.5" fill="none" stroke="#1e1e1e" stroke-width="1.2" stroke-linecap="round"/>
  <path d="M1098.3,332.5 C1038.6,333.4 980.2,332.6 921.7,332.8" fill="none" stroke="#1e1e1e" stroke-width="1.2" stroke-linecap="round"/>
  <path d="M921.8,332.9 C922.6,314.9 921.7,295.2 921.8,277.9" fill="none" stroke="#1e1e1e" stroke-width="1.2" stroke-linecap="round"/>
  <text x="1130.0" y="246.0" font-family="Virgil GS, Virgil, Excalifont, Comic Sans MS, Bradley Hand, cursive" font-size="14" fill="#5c5c5c" text-anchor="start" font-weight="normal">v1's five components,</text>
  <text x="1130.0" y="268.0" font-family="Virgil GS, Virgil, Excalifont, Comic Sans MS, Bradley Hand, cursive" font-size="14" fill="#5c5c5c" text-anchor="start" font-weight="normal">drawn from v0's 50 rows —</text>
  <text x="1130.0" y="290.0" font-family="Virgil GS, Virgil, Excalifont, Comic Sans MS, Bradley Hand, cursive" font-size="14" fill="#5c5c5c" text-anchor="start" font-weight="normal">a state that really existed</text>
  <text x="890.0" y="424.0" font-family="Virgil GS, Virgil, Excalifont, Comic Sans MS, Bradley Hand, cursive" font-size="15" fill="#1e1e1e" text-anchor="start" font-weight="bold">and the two ways it broke</text>
  <rect x="890.0" y="442.0" width="540.0" height="118.0" rx="6" fill="#ffe3e3"/>
  <path d="M889.2,442.4 C1069.1,442.6 1250.0,441.6 1430.1,441.4" fill="none" stroke="#1e1e1e" stroke-width="1.7" stroke-linecap="round"/>
  <path d="M889.3,442.2 C1069.7,443.4 1251.1,442.8 1430.6,441.6" fill="none" stroke="#1e1e1e" stroke-width="1.7" stroke-linecap="round"/>
  <path d="M1429.4,442.3 C1428.7,482.9 1429.4,520.3 1429.9,560.4" fill="none" stroke="#1e1e1e" stroke-width="1.7" stroke-linecap="round"/>
  <path d="M1430.8,442.5 C1430.5,481.4 1429.5,520.9 1430.8,559.7" fill="none" stroke="#1e1e1e" stroke-width="1.7" stroke-linecap="round"/>
  <path d="M1430.1,559.3 C1250.9,560.8 1070.9,559.2 889.9,559.6" fill="none" stroke="#1e1e1e" stroke-width="1.7" stroke-linecap="round"/>
  <path d="M1430.2,560.6 C1250.0,559.3 1069.8,561.6 890.2,559.7" fill="none" stroke="#1e1e1e" stroke-width="1.7" stroke-linecap="round"/>
  <path d="M890.4,559.2 C890.4,521.9 891.0,480.3 890.2,442.0" fill="none" stroke="#1e1e1e" stroke-width="1.7" stroke-linecap="round"/>
  <path d="M889.5,559.7 C891.3,521.0 890.8,480.7 890.6,442.2" fill="none" stroke="#1e1e1e" stroke-width="1.7" stroke-linecap="round"/>
  <text x="910.0" y="470.0" font-family="Virgil GS, Virgil, Excalifont, Comic Sans MS, Bradley Hand, cursive" font-size="16" fill="#1e1e1e" text-anchor="start" font-weight="bold">no pins</text>
  <rect x="910.0" y="480.0" width="128.0" height="66.0" rx="6" fill="#ffffff"/>
  <path d="M909.8,479.5 C952.9,480.0 996.1,481.1 1038.4,479.3" fill="none" stroke="#1e1e1e" stroke-width="1.7" stroke-linecap="round"/>
  <path d="M909.4,480.2 C952.3,479.9 996.0,479.3 1038.0,480.2" fill="none" stroke="#1e1e1e" stroke-width="1.7" stroke-linecap="round"/>
  <path d="M1038.6,480.6 C1039.5,501.5 1038.6,525.0 1037.9,545.6" fill="none" stroke="#1e1e1e" stroke-width="1.7" stroke-linecap="round"/>
  <path d="M1037.6,479.7 C1037.6,501.9 1036.9,523.0 1037.5,546.1" fill="none" stroke="#1e1e1e" stroke-width="1.7" stroke-linecap="round"/>
  <path d="M1038.4,546.7 C993.8,544.4 952.0,546.2 909.9,545.3" fill="none" stroke="#1e1e1e" stroke-width="1.7" stroke-linecap="round"/>
  <path d="M1037.5,545.3 C996.7,546.7 953.4,545.7 910.3,546.1" fill="none" stroke="#1e1e1e" stroke-width="1.7" stroke-linecap="round"/>
  <path d="M910.5,545.5 C908.7,522.5 910.1,502.1 909.5,480.5" fill="none" stroke="#1e1e1e" stroke-width="1.7" stroke-linecap="round"/>
  <path d="M910.3,546.0 C911.4,523.3 909.4,502.2 910.5,479.6" fill="none" stroke="#1e1e1e" stroke-width="1.7" stroke-linecap="round"/>
  <rect x="917.7" y="489.2" width="51.2" height="15.8" rx="3" fill="#f3f0ff" opacity="0.75"/>
  <path d="M917.5,489.6 C934.4,489.3 952.5,489.7 968.5,489.0" fill="none" stroke="#1e1e1e" stroke-width="1.2" stroke-linecap="round"/>
  <path d="M969.1,489.5 C969.2,495.1 969.2,499.7 968.7,505.1" fill="none" stroke="#1e1e1e" stroke-width="1.2" stroke-linecap="round"/>
  <path d="M969.0,505.3 C952.0,505.8 934.3,504.8 917.7,504.9" fill="none" stroke="#1e1e1e" stroke-width="1.2" stroke-linecap="round"/>
  <path d="M917.3,505.3 C918.5,500.2 917.0,494.0 917.4,489.6" fill="none" stroke="#1e1e1e" stroke-width="1.2" stroke-linecap="round"/>
  <rect x="976.6" y="489.2" width="53.8" height="15.8" rx="3" fill="#f3f0ff" opacity="0.75"/>
  <path d="M976.8,489.0 C994.7,489.3 1012.6,488.9 1030.3,488.9" fill="none" stroke="#1e1e1e" stroke-width="1.2" stroke-linecap="round"/>
  <path d="M1030.0,489.6 C1029.8,494.9 1030.3,500.5 1030.0,505.2" fill="none" stroke="#1e1e1e" stroke-width="1.2" stroke-linecap="round"/>
  <path d="M1030.7,505.3 C1013.0,505.3 994.1,505.5 976.4,504.8" fill="none" stroke="#1e1e1e" stroke-width="1.2" stroke-linecap="round"/>
  <path d="M976.3,504.7 C977.2,499.7 976.2,494.8 976.7,489.2" fill="none" stroke="#1e1e1e" stroke-width="1.2" stroke-linecap="round"/>
  <rect x="917.7" y="510.4" width="112.6" height="26.4" rx="3" fill="#f3f0ff" opacity="0.75"/>
  <path d="M917.5,510.4 C954.7,510.8 992.3,510.5 1030.4,510.5" fill="none" stroke="#1e1e1e" stroke-width="1.2" stroke-linecap="round"/>
  <path d="M1030.7,510.6 C1030.5,518.8 1031.1,528.1 1030.1,537.0" fill="none" stroke="#1e1e1e" stroke-width="1.2" stroke-linecap="round"/>
  <path d="M1030.4,536.4 C992.3,536.8 955.7,536.4 917.5,536.4" fill="none" stroke="#1e1e1e" stroke-width="1.2" stroke-linecap="round"/>
  <path d="M917.4,536.7 C918.3,528.1 917.5,519.2 917.7,510.4" fill="none" stroke="#1e1e1e" stroke-width="1.2" stroke-linecap="round"/>
  <path d="M1061.9,496.5 C1112.5,495.9 1164.1,495.2 1214.5,495.9" fill="none" stroke="#5c5c5c" stroke-width="1.4" stroke-linecap="round"/>
  <path d="M1062.1,495.4 C1111.8,496.6 1162.7,494.8 1213.8,496.4" fill="none" stroke="#5c5c5c" stroke-width="1.4" stroke-linecap="round"/>
  <circle cx="1078.0" cy="496.0" r="5" fill="#ffffff" stroke="#1e1e1e" stroke-width="1.4"/>
  <text x="1078.0" y="526.0" font-family="Virgil GS, Virgil, Excalifont, Comic Sans MS, Bradley Hand, cursive" font-size="13" fill="#5c5c5c" text-anchor="middle" font-weight="normal">v0</text>
  <circle cx="1118.0" cy="496.0" r="5" fill="#ffffff" stroke="#1e1e1e" stroke-width="1.4"/>
  <text x="1118.0" y="526.0" font-family="Virgil GS, Virgil, Excalifont, Comic Sans MS, Bradley Hand, cursive" font-size="13" fill="#5c5c5c" text-anchor="middle" font-weight="normal">v1</text>
  <circle cx="1158.0" cy="496.0" r="5" fill="#ffffff" stroke="#1e1e1e" stroke-width="1.4"/>
  <text x="1158.0" y="526.0" font-family="Virgil GS, Virgil, Excalifont, Comic Sans MS, Bradley Hand, cursive" font-size="13" fill="#5c5c5c" text-anchor="middle" font-weight="normal">v2</text>
  <circle cx="1198.0" cy="496.0" r="7" fill="#ffd43b" stroke="#1e1e1e" stroke-width="1.4"/>
  <circle cx="1198.0" cy="496.0" r="13" fill="none" stroke="#1e1e1e" stroke-width="1.3" stroke-dasharray="3 3"/>
  <text x="1198.0" y="526.0" font-family="Virgil GS, Virgil, Excalifont, Comic Sans MS, Bradley Hand, cursive" font-size="13" fill="#5c5c5c" text-anchor="middle" font-weight="normal">v3</text>
  <text x="1252.0" y="494.0" font-family="Virgil GS, Virgil, Excalifont, Comic Sans MS, Bradley Hand, cursive" font-size="13" fill="#5c5c5c" text-anchor="start" font-weight="normal">v1's layout,</text>
  <text x="1252.0" y="516.0" font-family="Virgil GS, Virgil, Excalifont, Comic Sans MS, Bradley Hand, cursive" font-size="13" fill="#5c5c5c" text-anchor="start" font-weight="normal">today's numbers</text>
  <rect x="890.0" y="578.0" width="540.0" height="118.0" rx="6" fill="#ffe3e3"/>
  <path d="M889.3,577.5 C1069.4,578.7 1249.2,576.6 1429.8,577.3" fill="none" stroke="#1e1e1e" stroke-width="1.7" stroke-linecap="round"/>
  <path d="M889.3,578.5 C1070.0,577.3 1250.3,577.1 1430.0,578.3" fill="none" stroke="#1e1e1e" stroke-width="1.7" stroke-linecap="round"/>
  <path d="M1430.7,577.5 C1430.1,616.7 1429.7,657.4 1429.6,695.5" fill="none" stroke="#1e1e1e" stroke-width="1.7" stroke-linecap="round"/>
  <path d="M1429.4,578.3 C1429.4,616.6 1428.7,657.3 1429.6,696.4" fill="none" stroke="#1e1e1e" stroke-width="1.7" stroke-linecap="round"/>
  <path d="M1429.9,695.7 C1249.0,697.3 1070.1,697.5 890.7,696.6" fill="none" stroke="#1e1e1e" stroke-width="1.7" stroke-linecap="round"/>
  <path d="M1429.7,695.6 C1250.2,695.1 1068.7,696.0 890.6,695.8" fill="none" stroke="#1e1e1e" stroke-width="1.7" stroke-linecap="round"/>
  <path d="M890.1,695.6 C889.7,655.3 889.5,616.6 890.7,578.3" fill="none" stroke="#1e1e1e" stroke-width="1.7" stroke-linecap="round"/>
  <path d="M890.1,696.2 C888.8,658.2 890.6,618.3 890.4,578.4" fill="none" stroke="#1e1e1e" stroke-width="1.7" stroke-linecap="round"/>
  <text x="910.0" y="606.0" font-family="Virgil GS, Virgil, Excalifont, Comic Sans MS, Bradley Hand, cursive" font-size="16" fill="#1e1e1e" text-anchor="start" font-weight="bold">no definitions</text>
  <rect x="910.0" y="616.0" width="128.0" height="66.0" rx="6" fill="#ffffff"/>
  <path d="M910.6,615.6 C951.1,617.2 994.7,616.6 1037.8,616.5" fill="none" stroke="#1e1e1e" stroke-width="1.7" stroke-linecap="round"/>
  <path d="M909.3,615.9 C954.3,615.0 995.6,617.5 1038.7,615.9" fill="none" stroke="#1e1e1e" stroke-width="1.7" stroke-linecap="round"/>
  <path d="M1037.5,615.5 C1038.9,637.8 1038.0,658.6 1037.2,682.0" fill="none" stroke="#1e1e1e" stroke-width="1.7" stroke-linecap="round"/>
  <path d="M1038.2,616.3 C1036.4,638.2 1037.3,659.4 1038.3,682.4" fill="none" stroke="#1e1e1e" stroke-width="1.7" stroke-linecap="round"/>
  <path d="M1038.4,682.1 C995.3,682.4 953.2,681.1 910.0,681.8" fill="none" stroke="#1e1e1e" stroke-width="1.7" stroke-linecap="round"/>
  <path d="M1038.1,681.4 C995.0,681.7 951.1,682.1 910.2,682.5" fill="none" stroke="#1e1e1e" stroke-width="1.7" stroke-linecap="round"/>
  <path d="M909.5,682.1 C911.2,659.2 908.9,639.2 910.3,615.5" fill="none" stroke="#1e1e1e" stroke-width="1.7" stroke-linecap="round"/>
  <path d="M910.5,682.7 C911.2,659.6 910.2,639.5 909.6,616.6" fill="none" stroke="#1e1e1e" stroke-width="1.7" stroke-linecap="round"/>
  <rect x="917.7" y="623.9" width="34.6" height="13.2" rx="3" fill="#ff8787" opacity="0.75"/>
  <path d="M917.9,624.1 C929.0,623.2 941.1,623.4 952.4,623.7" fill="none" stroke="#1e1e1e" stroke-width="1.2" stroke-linecap="round"/>
  <path d="M952.0,623.8 C951.5,628.7 953.0,633.4 952.5,637.3" fill="none" stroke="#1e1e1e" stroke-width="1.2" stroke-linecap="round"/>
  <path d="M952.1,636.9 C940.3,636.9 928.8,637.3 917.7,637.1" fill="none" stroke="#1e1e1e" stroke-width="1.2" stroke-linecap="round"/>
  <path d="M917.3,637.1 C917.1,632.1 918.3,627.6 917.8,623.9" fill="none" stroke="#1e1e1e" stroke-width="1.2" stroke-linecap="round"/>
  <rect x="956.1" y="623.9" width="34.6" height="13.2" rx="3" fill="#ff8787" opacity="0.75"/>
  <path d="M955.8,624.0 C967.7,624.1 978.9,624.0 990.6,624.1" fill="none" stroke="#1e1e1e" stroke-width="1.2" stroke-linecap="round"/>
  <path d="M990.9,623.7 C990.5,628.6 990.9,633.3 990.7,637.1" fill="none" stroke="#1e1e1e" stroke-width="1.2" stroke-linecap="round"/>
  <path d="M990.4,637.0 C978.9,637.0 967.8,636.6 956.2,637.3" fill="none" stroke="#1e1e1e" stroke-width="1.2" stroke-linecap="round"/>
  <path d="M956.2,637.2 C956.2,632.6 955.7,628.5 956.4,623.5" fill="none" stroke="#1e1e1e" stroke-width="1.2" stroke-linecap="round"/>
  <rect x="994.5" y="623.9" width="35.8" height="13.2" rx="3" fill="#ff8787" opacity="0.75"/>
  <path d="M994.1,624.1 C1006.6,623.8 1019.1,624.0 1030.1,623.7" fill="none" stroke="#1e1e1e" stroke-width="1.2" stroke-linecap="round"/>
  <path d="M1030.0,623.8 C1030.4,627.6 1031.1,633.4 1030.3,636.8" fill="none" stroke="#1e1e1e" stroke-width="1.2" stroke-linecap="round"/>
  <path d="M1030.4,637.4 C1018.8,637.4 1006.2,636.3 994.4,636.8" fill="none" stroke="#1e1e1e" stroke-width="1.2" stroke-linecap="round"/>
  <path d="M994.1,637.2 C995.2,632.5 993.8,628.3 994.6,624.1" fill="none" stroke="#1e1e1e" stroke-width="1.2" stroke-linecap="round"/>
  <rect x="917.7" y="641.1" width="53.8" height="17.2" rx="3" fill="#ff8787" opacity="0.75"/>
  <path d="M917.4,641.1 C935.1,640.6 953.9,641.9 971.1,641.3" fill="none" stroke="#1e1e1e" stroke-width="1.2" stroke-linecap="round"/>
  <path d="M971.7,640.8 C971.7,647.1 971.9,651.9 971.2,658.2" fill="none" stroke="#1e1e1e" stroke-width="1.2" stroke-linecap="round"/>
  <path d="M971.7,658.4 C953.1,657.9 935.0,658.0 918.0,658.1" fill="none" stroke="#1e1e1e" stroke-width="1.2" stroke-linecap="round"/>
  <path d="M917.5,658.0 C917.1,651.9 917.6,646.9 917.9,641.0" fill="none" stroke="#1e1e1e" stroke-width="1.2" stroke-linecap="round"/>
  <rect x="975.3" y="641.1" width="55.0" height="17.2" rx="3" fill="#ff8787" opacity="0.75"/>
  <path d="M974.9,640.8 C994.3,641.0 1011.4,641.8 1030.6,641.3" fill="none" stroke="#1e1e1e" stroke-width="1.2" stroke-linecap="round"/>
  <path d="M1030.6,641.5 C1029.9,647.6 1030.8,651.9 1030.5,657.9" fill="none" stroke="#1e1e1e" stroke-width="1.2" stroke-linecap="round"/>
  <path d="M1030.1,657.9 C1011.4,658.5 993.0,657.7 975.0,658.5" fill="none" stroke="#1e1e1e" stroke-width="1.2" stroke-linecap="round"/>
  <path d="M975.2,658.3 C974.5,653.3 974.9,647.1 974.9,641.4" fill="none" stroke="#1e1e1e" stroke-width="1.2" stroke-linecap="round"/>
  <rect x="917.7" y="662.2" width="112.6" height="11.9" rx="3" fill="#ff8787" opacity="0.75"/>
  <path d="M918.0,661.9 C954.8,661.8 993.5,661.5 1030.0,662.0" fill="none" stroke="#1e1e1e" stroke-width="1.2" stroke-linecap="round"/>
  <path d="M1030.5,662.3 C1030.2,666.8 1030.9,669.4 1030.1,674.4" fill="none" stroke="#1e1e1e" stroke-width="1.2" stroke-linecap="round"/>
  <path d="M1030.3,674.3 C992.8,674.5 954.7,674.3 917.5,673.9" fill="none" stroke="#1e1e1e" stroke-width="1.2" stroke-linecap="round"/>
  <path d="M917.6,673.7 C917.6,670.5 917.0,665.9 917.6,662.0" fill="none" stroke="#1e1e1e" stroke-width="1.2" stroke-linecap="round"/>
  <path d="M1061.9,631.8 C1113.1,632.3 1163.6,632.9 1213.7,631.7" fill="none" stroke="#5c5c5c" stroke-width="1.4" stroke-linecap="round"/>
  <path d="M1061.4,632.5 C1112.6,632.0 1163.5,631.7 1213.5,632.6" fill="none" stroke="#5c5c5c" stroke-width="1.4" stroke-linecap="round"/>
  <circle cx="1078.0" cy="632.0" r="7" fill="#ffd43b" stroke="#1e1e1e" stroke-width="1.4"/>
  <circle cx="1078.0" cy="632.0" r="13" fill="none" stroke="#1e1e1e" stroke-width="1.3" stroke-dasharray="3 3"/>
  <text x="1078.0" y="662.0" font-family="Virgil GS, Virgil, Excalifont, Comic Sans MS, Bradley Hand, cursive" font-size="13" fill="#5c5c5c" text-anchor="middle" font-weight="normal">v0</text>
  <circle cx="1118.0" cy="632.0" r="5" fill="#ffffff" stroke="#1e1e1e" stroke-width="1.4"/>
  <text x="1118.0" y="662.0" font-family="Virgil GS, Virgil, Excalifont, Comic Sans MS, Bradley Hand, cursive" font-size="13" fill="#5c5c5c" text-anchor="middle" font-weight="normal">v1</text>
  <circle cx="1158.0" cy="632.0" r="5" fill="#ffffff" stroke="#1e1e1e" stroke-width="1.4"/>
  <text x="1158.0" y="662.0" font-family="Virgil GS, Virgil, Excalifont, Comic Sans MS, Bradley Hand, cursive" font-size="13" fill="#5c5c5c" text-anchor="middle" font-weight="normal">v2</text>
  <circle cx="1198.0" cy="632.0" r="5" fill="#ffffff" stroke="#1e1e1e" stroke-width="1.4"/>
  <text x="1198.0" y="662.0" font-family="Virgil GS, Virgil, Excalifont, Comic Sans MS, Bradley Hand, cursive" font-size="13" fill="#5c5c5c" text-anchor="middle" font-weight="normal">v3</text>
  <text x="1252.0" y="630.0" font-family="Virgil GS, Virgil, Excalifont, Comic Sans MS, Bradley Hand, cursive" font-size="13" fill="#5c5c5c" text-anchor="start" font-weight="normal">“Mean … (Average)”</text>
  <text x="1252.0" y="652.0" font-family="Virgil GS, Virgil, Excalifont, Comic Sans MS, Bradley Hand, cursive" font-size="13" fill="#5c5c5c" text-anchor="start" font-weight="normal">showing the live max</text>
  <path d="M859.5,490.1 C865.5,496.9 874.6,504.5 881.2,512.1" fill="none" stroke="#c92a2a" stroke-width="1.7" stroke-linecap="round"/>
  <path d="M859.3,511.9 C865.9,505.6 872.7,496.9 881.4,490.4" fill="none" stroke="#c92a2a" stroke-width="1.7" stroke-linecap="round"/>
  <path d="M859.2,626.1 C866.8,632.5 873.6,640.7 880.7,647.8" fill="none" stroke="#c92a2a" stroke-width="1.7" stroke-linecap="round"/>
  <path d="M859.5,648.3 C866.2,640.8 873.2,633.8 880.7,626.3" fill="none" stroke="#c92a2a" stroke-width="1.7" stroke-linecap="round"/>
  <text x="58.0" y="628.0" font-family="Virgil GS, Virgil, Excalifont, Comic Sans MS, Bradley Hand, cursive" font-size="14" fill="#5c5c5c" text-anchor="start" font-weight="normal">Neither failure is visible in review: each half is</text>
  <text x="58.0" y="652.0" font-family="Virgil GS, Virgil, Excalifont, Comic Sans MS, Bradley Hand, cursive" font-size="14" fill="#5c5c5c" text-anchor="start" font-weight="normal">correct on its own, and the seam between them holds</text>
  <text x="58.0" y="676.0" font-family="Virgil GS, Virgil, Excalifont, Comic Sans MS, Bradley Hand, cursive" font-size="14" fill="#5c5c5c" text-anchor="start" font-weight="normal">no code to read. Both are pinned by checks that run</text>
  <text x="58.0" y="700.0" font-family="Virgil GS, Virgil, Excalifont, Comic Sans MS, Bradley Hand, cursive" font-size="14" fill="#5c5c5c" text-anchor="start" font-weight="normal">the real functions and inspect the served bundle.</text>
</svg>
