<svg xmlns="http://www.w3.org/2000/svg" width="1060" height="800" viewBox="0 0 1060 800">
  <rect width="1060" height="800" fill="#ffffff"/>
  <text x="46.0" y="52.0" font-family="Virgil GS, Virgil, Excalifont, Comic Sans MS, Bradley Hand, cursive" font-size="25" fill="#1e1e1e" text-anchor="start" font-weight="normal">How each write is chosen</text>
  <text x="46.0" y="78.0" font-family="Virgil GS, Virgil, Excalifont, Comic Sans MS, Bradley Hand, cursive" font-size="15" fill="#5c5c5c" text-anchor="start" font-weight="normal">every fall-back does more work than the path it replaces, never less</text>
  <rect x="360.0" y="108.0" width="340.0" height="96.0" rx="6" fill="#e7f5ff"/>
  <path d="M360.1,107.9 C474.7,109.4 587.9,106.7 700.0,107.4" fill="none" stroke="#1e1e1e" stroke-width="1.7" stroke-linecap="round"/>
  <path d="M359.2,107.3 C472.3,107.8 585.8,107.9 700.3,107.9" fill="none" stroke="#1e1e1e" stroke-width="1.7" stroke-linecap="round"/>
  <path d="M700.5,108.1 C700.0,140.7 699.5,170.6 700.3,204.2" fill="none" stroke="#1e1e1e" stroke-width="1.7" stroke-linecap="round"/>
  <path d="M700.1,108.3 C701.5,139.6 700.8,171.6 699.7,203.3" fill="none" stroke="#1e1e1e" stroke-width="1.7" stroke-linecap="round"/>
  <path d="M700.2,203.5 C586.6,204.7 473.6,203.8 359.5,203.7" fill="none" stroke="#1e1e1e" stroke-width="1.7" stroke-linecap="round"/>
  <path d="M699.3,203.6 C587.7,203.0 472.1,202.7 360.1,204.5" fill="none" stroke="#1e1e1e" stroke-width="1.7" stroke-linecap="round"/>
  <path d="M360.4,204.1 C359.5,171.6 359.3,139.4 359.6,107.4" fill="none" stroke="#1e1e1e" stroke-width="1.7" stroke-linecap="round"/>
  <path d="M360.1,204.7 C360.9,172.7 361.1,139.2 360.1,108.7" fill="none" stroke="#1e1e1e" stroke-width="1.7" stroke-linecap="round"/>
  <text x="530.0" y="135.0" font-family="Virgil GS, Virgil, Excalifont, Comic Sans MS, Bradley Hand, cursive" font-size="18" fill="#1e1e1e" text-anchor="middle" font-weight="bold">What the scan reports</text>
  <text x="530.0" y="159.0" font-family="Virgil GS, Virgil, Excalifont, Comic Sans MS, Bradley Hand, cursive" font-size="14" fill="#5c5c5c" text-anchor="middle" font-weight="normal">changed_dcs · covered_dcs</text>
  <text x="530.0" y="180.0" font-family="Virgil GS, Virgil, Excalifont, Comic Sans MS, Bradley Hand, cursive" font-size="14" fill="#5c5c5c" text-anchor="middle" font-weight="normal">removed_runs · complete</text>
  <rect x="360.0" y="254.0" width="340.0" height="76.0" rx="6" fill="#fff9db"/>
  <path d="M359.2,254.5 C472.3,255.5 585.2,253.7 700.3,254.8" fill="none" stroke="#1e1e1e" stroke-width="1.7" stroke-linecap="round"/>
  <path d="M360.4,253.8 C474.3,255.4 586.8,255.6 700.8,253.8" fill="none" stroke="#1e1e1e" stroke-width="1.7" stroke-linecap="round"/>
  <path d="M700.7,254.7 C699.0,278.0 699.9,303.7 699.5,329.4" fill="none" stroke="#1e1e1e" stroke-width="1.7" stroke-linecap="round"/>
  <path d="M699.6,253.9 C700.1,278.3 700.1,305.7 700.6,329.9" fill="none" stroke="#1e1e1e" stroke-width="1.7" stroke-linecap="round"/>
  <path d="M700.3,329.9 C586.2,331.3 474.3,331.3 360.3,330.5" fill="none" stroke="#1e1e1e" stroke-width="1.7" stroke-linecap="round"/>
  <path d="M700.4,330.1 C587.1,329.2 472.7,329.7 360.1,330.5" fill="none" stroke="#1e1e1e" stroke-width="1.7" stroke-linecap="round"/>
  <path d="M360.5,329.6 C358.7,305.1 359.5,279.5 360.7,253.3" fill="none" stroke="#1e1e1e" stroke-width="1.7" stroke-linecap="round"/>
  <path d="M360.0,329.9 C360.2,304.8 359.2,279.5 360.3,253.2" fill="none" stroke="#1e1e1e" stroke-width="1.7" stroke-linecap="round"/>
  <text x="530.0" y="281.0" font-family="Virgil GS, Virgil, Excalifont, Comic Sans MS, Bradley Hand, cursive" font-size="18" fill="#1e1e1e" text-anchor="middle" font-weight="bold">Did this collection move?</text>
  <rect x="760.0" y="254.0" width="262.0" height="76.0" rx="6" fill="#ebfbee"/>
  <path d="M759.5,254.3 C846.9,254.9 933.5,255.2 1021.5,253.9" fill="none" stroke="#1e1e1e" stroke-width="1.7" stroke-linecap="round"/>
  <path d="M760.3,254.1 C847.1,252.7 935.3,253.9 1022.1,254.0" fill="none" stroke="#1e1e1e" stroke-width="1.7" stroke-linecap="round"/>
  <path d="M1022.6,254.0 C1021.4,280.6 1020.7,305.9 1022.4,330.3" fill="none" stroke="#1e1e1e" stroke-width="1.7" stroke-linecap="round"/>
  <path d="M1021.7,254.7 C1022.3,278.7 1021.4,304.2 1021.7,329.8" fill="none" stroke="#1e1e1e" stroke-width="1.7" stroke-linecap="round"/>
  <path d="M1021.6,329.6 C934.4,331.0 847.3,330.2 759.3,329.5" fill="none" stroke="#1e1e1e" stroke-width="1.7" stroke-linecap="round"/>
  <path d="M1021.9,329.4 C933.9,331.1 847.3,328.8 760.1,329.9" fill="none" stroke="#1e1e1e" stroke-width="1.7" stroke-linecap="round"/>
  <path d="M760.8,330.2 C761.1,303.9 761.1,278.5 759.3,254.5" fill="none" stroke="#1e1e1e" stroke-width="1.7" stroke-linecap="round"/>
  <path d="M759.3,330.4 C759.3,304.2 758.9,280.4 759.8,254.3" fill="none" stroke="#1e1e1e" stroke-width="1.7" stroke-linecap="round"/>
  <text x="891.0" y="281.0" font-family="Virgil GS, Virgil, Excalifont, Comic Sans MS, Bradley Hand, cursive" font-size="18" fill="#1e1e1e" text-anchor="middle" font-weight="bold">Leave it alone</text>
  <text x="891.0" y="305.0" font-family="Virgil GS, Virgil, Excalifont, Comic Sans MS, Bradley Hand, cursive" font-size="14" fill="#5c5c5c" text-anchor="middle" font-weight="normal">no read, no parse, no commit</text>
  <rect x="360.0" y="404.0" width="340.0" height="76.0" rx="6" fill="#f3f0ff"/>
  <path d="M359.5,404.8 C472.7,402.7 588.0,404.5 700.7,403.5" fill="none" stroke="#1e1e1e" stroke-width="1.7" stroke-linecap="round"/>
  <path d="M360.0,404.3 C471.8,404.4 585.5,404.7 700.1,404.4" fill="none" stroke="#1e1e1e" stroke-width="1.7" stroke-linecap="round"/>
  <path d="M699.4,403.3 C701.0,429.7 700.3,454.1 700.6,479.5" fill="none" stroke="#1e1e1e" stroke-width="1.7" stroke-linecap="round"/>
  <path d="M700.6,403.9 C699.8,428.7 700.4,454.8 699.8,480.2" fill="none" stroke="#1e1e1e" stroke-width="1.7" stroke-linecap="round"/>
  <path d="M700.8,480.8 C587.5,481.4 472.7,481.2 359.4,479.8" fill="none" stroke="#1e1e1e" stroke-width="1.7" stroke-linecap="round"/>
  <path d="M700.4,480.4 C587.5,481.1 471.9,479.7 360.1,479.5" fill="none" stroke="#1e1e1e" stroke-width="1.7" stroke-linecap="round"/>
  <path d="M360.5,480.1 C359.7,453.3 359.4,429.1 359.9,403.6" fill="none" stroke="#1e1e1e" stroke-width="1.7" stroke-linecap="round"/>
  <path d="M360.5,480.1 C359.4,455.2 359.8,428.3 360.7,404.1" fill="none" stroke="#1e1e1e" stroke-width="1.7" stroke-linecap="round"/>
  <text x="530.0" y="431.0" font-family="Virgil GS, Virgil, Excalifont, Comic Sans MS, Bradley Hand, cursive" font-size="18" fill="#1e1e1e" text-anchor="middle" font-weight="bold">Can the write be scoped?</text>
  <rect x="46.0" y="404.0" width="262.0" height="76.0" rx="6" fill="#fff9db"/>
  <path d="M46.8,404.3 C133.7,403.8 221.0,405.3 307.9,403.3" fill="none" stroke="#1e1e1e" stroke-width="1.7" stroke-linecap="round"/>
  <path d="M45.3,403.8 C134.4,403.7 220.3,402.6 308.8,404.4" fill="none" stroke="#1e1e1e" stroke-width="1.7" stroke-linecap="round"/>
  <path d="M308.2,403.3 C308.7,429.9 307.3,453.6 308.1,480.0" fill="none" stroke="#1e1e1e" stroke-width="1.7" stroke-linecap="round"/>
  <path d="M307.4,404.2 C308.1,428.1 306.6,454.6 307.7,480.2" fill="none" stroke="#1e1e1e" stroke-width="1.7" stroke-linecap="round"/>
  <path d="M307.8,480.8 C221.5,480.3 133.4,479.0 45.6,479.7" fill="none" stroke="#1e1e1e" stroke-width="1.7" stroke-linecap="round"/>
  <path d="M308.7,479.2 C220.6,480.1 134.3,479.3 46.5,480.1" fill="none" stroke="#1e1e1e" stroke-width="1.7" stroke-linecap="round"/>
  <path d="M46.3,479.4 C47.3,453.6 46.6,430.8 46.7,404.8" fill="none" stroke="#1e1e1e" stroke-width="1.7" stroke-linecap="round"/>
  <path d="M46.5,480.4 C44.8,455.7 44.7,428.0 46.7,404.2" fill="none" stroke="#1e1e1e" stroke-width="1.7" stroke-linecap="round"/>
  <text x="177.0" y="431.0" font-family="Virgil GS, Virgil, Excalifont, Comic Sans MS, Bradley Hand, cursive" font-size="18" fill="#1e1e1e" text-anchor="middle" font-weight="bold">Rebuild in full</text>
  <text x="177.0" y="455.0" font-family="Virgil GS, Virgil, Excalifont, Comic Sans MS, Bradley Hand, cursive" font-size="14" fill="#5c5c5c" text-anchor="middle" font-weight="normal">read and rewrite everything</text>
  <rect x="360.0" y="556.0" width="340.0" height="122.0" rx="6" fill="#ebfbee"/>
  <path d="M360.2,556.6 C473.4,555.3 586.9,557.6 699.5,556.4" fill="none" stroke="#1e1e1e" stroke-width="1.7" stroke-linecap="round"/>
  <path d="M359.5,555.3 C474.1,554.6 587.7,555.0 700.3,555.4" fill="none" stroke="#1e1e1e" stroke-width="1.7" stroke-linecap="round"/>
  <path d="M700.1,556.1 C701.5,595.1 701.0,638.2 700.5,678.2" fill="none" stroke="#1e1e1e" stroke-width="1.7" stroke-linecap="round"/>
  <path d="M700.0,556.6 C698.8,597.6 699.5,637.6 699.9,678.6" fill="none" stroke="#1e1e1e" stroke-width="1.7" stroke-linecap="round"/>
  <path d="M700.5,677.5 C585.3,677.4 473.9,678.4 360.5,678.5" fill="none" stroke="#1e1e1e" stroke-width="1.7" stroke-linecap="round"/>
  <path d="M700.2,677.9 C585.5,676.8 473.6,679.5 360.0,678.5" fill="none" stroke="#1e1e1e" stroke-width="1.7" stroke-linecap="round"/>
  <path d="M360.5,678.5 C360.1,637.5 360.3,598.0 359.6,556.2" fill="none" stroke="#1e1e1e" stroke-width="1.7" stroke-linecap="round"/>
  <path d="M359.4,678.0 C361.0,638.0 361.4,598.0 359.8,555.5" fill="none" stroke="#1e1e1e" stroke-width="1.7" stroke-linecap="round"/>
  <text x="530.0" y="583.0" font-family="Virgil GS, Virgil, Excalifont, Comic Sans MS, Bradley Hand, cursive" font-size="18" fill="#1e1e1e" text-anchor="middle" font-weight="bold">Write only those runs</text>
  <text x="530.0" y="607.0" font-family="Virgil GS, Virgil, Excalifont, Comic Sans MS, Bradley Hand, cursive" font-size="14" fill="#5c5c5c" text-anchor="middle" font-weight="normal">replaceWhere on the changed runs</text>
  <text x="530.0" y="628.0" font-family="Virgil GS, Virgil, Excalifont, Comic Sans MS, Bradley Hand, cursive" font-size="14" fill="#5c5c5c" text-anchor="middle" font-weight="normal">schema_mode = merge</text>
  <text x="530.0" y="649.0" font-family="Virgil GS, Virgil, Excalifont, Comic Sans MS, Bradley Hand, cursive" font-size="14" fill="#5c5c5c" text-anchor="middle" font-weight="normal">rows_total left unset, not faked</text>
  <path d="M529.5,209.7 C530.0,223.9 531.1,232.4 530.8,245.9" fill="none" stroke="#1e1e1e" stroke-width="1.7" stroke-linecap="round"/>
  <path d="M530.2,211.0 C528.6,222.2 529.0,232.2 530.6,246.5" fill="none" stroke="#1e1e1e" stroke-width="1.7" stroke-linecap="round"/>
  <path d="M529.9,245.6 C531.5,242.0 534.7,238.3 537.0,233.4" fill="none" stroke="#1e1e1e" stroke-width="1.7" stroke-linecap="round"/>
  <path d="M529.6,245.9 C528.3,241.8 526.2,237.4 523.4,233.9" fill="none" stroke="#1e1e1e" stroke-width="1.7" stroke-linecap="round"/>
  <path d="M707.3,292.8 C721.6,292.7 735.5,292.9 750.9,291.0" fill="none" stroke="#1e1e1e" stroke-width="1.7" stroke-linecap="round"/>
  <path d="M708.5,292.5 C723.4,293.1 736.8,290.4 750.3,292.9" fill="none" stroke="#1e1e1e" stroke-width="1.7" stroke-linecap="round"/>
  <path d="M749.8,292.0 C746.8,290.1 742.6,286.9 737.7,285.9" fill="none" stroke="#1e1e1e" stroke-width="1.7" stroke-linecap="round"/>
  <path d="M749.9,292.2 C746.2,294.4 742.0,297.3 737.7,298.5" fill="none" stroke="#1e1e1e" stroke-width="1.7" stroke-linecap="round"/>
  <text x="732.0" y="280.0" font-family="Virgil GS, Virgil, Excalifont, Comic Sans MS, Bradley Hand, cursive" font-size="14" fill="#5c5c5c" text-anchor="start" font-weight="normal">no</text>
  <path d="M529.6,335.2 C529.4,354.6 528.0,375.3 530.0,395.7" fill="none" stroke="#1e1e1e" stroke-width="1.7" stroke-linecap="round"/>
  <path d="M529.5,335.2 C531.7,357.1 530.7,377.4 530.2,395.5" fill="none" stroke="#1e1e1e" stroke-width="1.7" stroke-linecap="round"/>
  <path d="M529.6,396.1 C533.2,391.7 535.2,387.3 536.8,383.4" fill="none" stroke="#1e1e1e" stroke-width="1.7" stroke-linecap="round"/>
  <path d="M530.5,395.6 C528.7,392.8 526.0,388.7 523.7,383.9" fill="none" stroke="#1e1e1e" stroke-width="1.7" stroke-linecap="round"/>
  <text x="544.0" y="362.0" font-family="Virgil GS, Virgil, Excalifont, Comic Sans MS, Bradley Hand, cursive" font-size="14" fill="#5c5c5c" text-anchor="start" font-weight="normal">yes</text>
  <path d="M350.7,441.1 C339.6,441.4 327.5,442.4 315.8,441.6" fill="none" stroke="#1e1e1e" stroke-width="1.7" stroke-linecap="round"/>
  <path d="M349.2,441.9 C339.8,440.5 325.6,440.5 316.7,441.7" fill="none" stroke="#1e1e1e" stroke-width="1.7" stroke-linecap="round"/>
  <path d="M316.2,442.0 C319.3,444.5 323.9,446.5 328.6,448.7" fill="none" stroke="#1e1e1e" stroke-width="1.7" stroke-linecap="round"/>
  <path d="M315.8,442.0 C320.8,440.3 325.0,438.1 328.6,435.7" fill="none" stroke="#1e1e1e" stroke-width="1.7" stroke-linecap="round"/>
  <text x="342.0" y="430.0" font-family="Virgil GS, Virgil, Excalifont, Comic Sans MS, Bradley Hand, cursive" font-size="14" fill="#5c5c5c" text-anchor="start" font-weight="normal">no</text>
  <path d="M530.3,485.1 C530.9,508.0 531.3,527.5 530.0,548.5" fill="none" stroke="#1e1e1e" stroke-width="1.7" stroke-linecap="round"/>
  <path d="M530.8,486.3 C531.7,508.1 529.8,526.3 529.4,547.1" fill="none" stroke="#1e1e1e" stroke-width="1.7" stroke-linecap="round"/>
  <path d="M530.1,548.3 C532.9,544.0 533.6,540.7 536.9,535.4" fill="none" stroke="#1e1e1e" stroke-width="1.7" stroke-linecap="round"/>
  <path d="M530.3,547.6 C527.9,543.2 525.8,539.6 523.1,535.5" fill="none" stroke="#1e1e1e" stroke-width="1.7" stroke-linecap="round"/>
  <text x="544.0" y="512.0" font-family="Virgil GS, Virgil, Excalifont, Comic Sans MS, Bradley Hand, cursive" font-size="14" fill="#5c5c5c" text-anchor="start" font-weight="normal">yes</text>
  <rect x="46.0" y="528.0" width="262.0" height="190.0" rx="6" fill="#ffe3e3"/>
  <path d="M45.5,528.5 C131.7,527.7 222.1,529.2 307.6,527.6" fill="none" stroke="#1e1e1e" stroke-width="1.7" stroke-linecap="round"/>
  <path d="M45.5,527.5 C133.8,527.3 219.7,526.7 308.7,527.3" fill="none" stroke="#1e1e1e" stroke-width="1.7" stroke-linecap="round"/>
  <path d="M307.8,528.4 C308.1,590.4 308.7,653.1 307.2,717.9" fill="none" stroke="#1e1e1e" stroke-width="1.7" stroke-linecap="round"/>
  <path d="M308.6,527.6 C307.4,591.3 308.4,653.3 308.4,717.4" fill="none" stroke="#1e1e1e" stroke-width="1.7" stroke-linecap="round"/>
  <path d="M307.4,717.3 C219.4,717.0 132.0,717.2 46.6,718.0" fill="none" stroke="#1e1e1e" stroke-width="1.7" stroke-linecap="round"/>
  <path d="M307.3,718.3 C220.7,718.0 134.3,716.5 45.2,718.0" fill="none" stroke="#1e1e1e" stroke-width="1.7" stroke-linecap="round"/>
  <path d="M45.7,718.1 C46.4,655.8 44.4,591.0 45.3,528.4" fill="none" stroke="#1e1e1e" stroke-width="1.7" stroke-linecap="round"/>
  <path d="M46.6,718.5 C47.5,654.8 46.5,592.4 46.0,527.3" fill="none" stroke="#1e1e1e" stroke-width="1.7" stroke-linecap="round"/>
  <text x="177.0" y="555.0" font-family="Virgil GS, Virgil, Excalifont, Comic Sans MS, Bradley Hand, cursive" font-size="18" fill="#1e1e1e" text-anchor="middle" font-weight="bold">…it declines on</text>
  <text x="177.0" y="579.0" font-family="Virgil GS, Virgil, Excalifont, Comic Sans MS, Bradley Hand, cursive" font-size="14" fill="#5c5c5c" text-anchor="middle" font-weight="normal">a removed run</text>
  <text x="177.0" y="600.0" font-family="Virgil GS, Virgil, Excalifont, Comic Sans MS, Bradley Hand, cursive" font-size="14" fill="#5c5c5c" text-anchor="middle" font-weight="normal">an incomplete scan</text>
  <text x="177.0" y="621.0" font-family="Virgil GS, Virgil, Excalifont, Comic Sans MS, Bradley Hand, cursive" font-size="14" fill="#5c5c5c" text-anchor="middle" font-weight="normal">an uncovered collection</text>
  <text x="177.0" y="642.0" font-family="Virgil GS, Virgil, Excalifont, Comic Sans MS, Bradley Hand, cursive" font-size="14" fill="#5c5c5c" text-anchor="middle" font-weight="normal">an unpartitioned table</text>
  <text x="177.0" y="663.0" font-family="Virgil GS, Virgil, Excalifont, Comic Sans MS, Bradley Hand, cursive" font-size="14" fill="#5c5c5c" text-anchor="middle" font-weight="normal">an emptied run</text>
  <text x="177.0" y="684.0" font-family="Virgil GS, Virgil, Excalifont, Comic Sans MS, Bradley Hand, cursive" font-size="14" fill="#5c5c5c" text-anchor="middle" font-weight="normal">a column type change</text>
  <path d="M177.9,486.2 C178.2,499.4 177.8,509.3 176.6,522.6" fill="none" stroke="#adb5bd" stroke-width="1.4" stroke-linecap="round" stroke-dasharray="9 7"/>
  <path d="M177.7,485.8 C175.9,497.0 178.6,508.2 177.1,522.4" fill="none" stroke="#adb5bd" stroke-width="1.4" stroke-linecap="round" stroke-dasharray="9 7"/>
  <text x="46.0" y="768.0" font-family="Virgil GS, Virgil, Excalifont, Comic Sans MS, Bradley Hand, cursive" font-size="14" fill="#5c5c5c" text-anchor="start" font-weight="normal">decided before the file list is filtered — so a subset can never reach the full-overwrite fall-back</text>
</svg>
