<svg width="251" height="251" viewBox="0 0 251 251" fill="none" xmlns="http://www.w3.org/2000/svg">
<path d="M46.6601 120.501C49.2801 81.0535 80.9701 49.4457 120.46 46.9658V0.898926C55.5001 3.45875 3.28008 55.5752 0.580078 120.501H46.6601Z" fill="white"/>
<path d="M120.19 204.806C80.7401 202.186 49.1301 170.498 46.6501 131.011H0.580078C3.14008 195.966 55.2601 248.183 120.19 250.883V204.806Z" fill="white"/>
<path d="M130.969 46.9758C170.419 49.5957 202.029 81.2835 204.509 120.771H250.579C248.019 55.8152 195.899 3.59874 130.969 0.898926V46.9758Z" fill="white"/>
<path d="M250.579 204.806C211.129 202.186 179.519 170.498 177.039 131.011H130.969C133.529 195.966 185.649 248.183 250.579 250.883V204.806Z" fill="white"/>
</svg>
