<svg width="251" height="251" viewBox="0 0 251 251" fill="none" xmlns="http://www.w3.org/2000/svg">
<g clip-path="url(#clip0_421_616)">
<path d="M46.6601 120.326C49.2801 80.8792 80.9701 49.2714 120.46 46.7915V0.724609C55.5001 3.28444 3.28008 55.4009 0.580078 120.326H46.6601Z" fill="#201637"/>
<path d="M120.19 204.631C80.7401 202.011 49.1301 170.323 46.6501 130.836H0.580078C3.14008 195.792 55.2601 248.008 120.19 250.708V204.631Z" fill="#201637"/>
<path d="M130.969 46.8015C170.419 49.4213 202.029 81.1092 204.509 120.596H250.579C248.019 55.6409 195.899 3.42443 130.969 0.724609V46.8015Z" fill="#201637"/>
<path d="M250.579 204.631C211.129 202.011 179.519 170.323 177.039 130.836H130.969C133.529 195.792 185.649 248.008 250.579 250.708V204.631Z" fill="#201637"/>
</g>
<defs>
<clipPath id="clip0_421_616">
<rect width="251" height="251" fill="white"/>
</clipPath>
</defs>
</svg>
