<svg xmlns="http://www.w3.org/2000/svg" width="1340" height="720" viewBox="0 0 1340 720">
  <rect width="1340" height="720" fill="#ffffff"/>
  <text x="50.0" y="56.0" font-family="Virgil GS, Virgil, Excalifont, Comic Sans MS, Bradley Hand, cursive" font-size="25" fill="#1e1e1e" text-anchor="start" font-weight="normal">Reviewing the draft</text>
  <text x="50.0" y="82.0" font-family="Virgil GS, Virgil, Excalifont, Comic Sans MS, Bradley Hand, cursive" font-size="15" fill="#5c5c5c" text-anchor="start" font-weight="normal">editor-only, until somebody promotes or discards it</text>
  <rect x="50.0" y="110.0" width="300.0" height="200.0" rx="6" fill="#ffe3e3"/>
  <path d="M50.4,110.7 C150.4,110.8 250.9,111.4 349.2,109.9" fill="none" stroke="#1e1e1e" stroke-width="1.7" stroke-linecap="round"/>
  <path d="M50.0,109.6 C151.4,110.5 251.3,108.8 350.1,110.1" fill="none" stroke="#1e1e1e" stroke-width="1.7" stroke-linecap="round"/>
  <path d="M350.4,109.5 C348.4,175.8 349.3,244.7 350.5,309.4" fill="none" stroke="#1e1e1e" stroke-width="1.7" stroke-linecap="round"/>
  <path d="M349.5,109.5 C350.4,175.5 348.4,244.5 350.8,310.6" fill="none" stroke="#1e1e1e" stroke-width="1.7" stroke-linecap="round"/>
  <path d="M349.5,310.7 C249.3,311.5 150.1,310.6 50.3,310.7" fill="none" stroke="#1e1e1e" stroke-width="1.7" stroke-linecap="round"/>
  <path d="M349.4,309.3 C251.3,309.4 149.6,308.9 49.7,310.2" fill="none" stroke="#1e1e1e" stroke-width="1.7" stroke-linecap="round"/>
  <path d="M50.5,310.0 C48.4,243.9 49.5,176.1 49.7,110.0" fill="none" stroke="#1e1e1e" stroke-width="1.7" stroke-linecap="round"/>
  <path d="M50.4,310.6 C50.7,241.9 51.5,175.1 49.2,110.5" fill="none" stroke="#1e1e1e" stroke-width="1.7" stroke-linecap="round"/>
  <text x="200.0" y="137.0" font-family="Virgil GS, Virgil, Excalifont, Comic Sans MS, Bradley Hand, cursive" font-size="18" fill="#1e1e1e" text-anchor="middle" font-weight="bold">ai_generation</text>
  <text x="200.0" y="161.0" font-family="Virgil GS, Virgil, Excalifont, Comic Sans MS, Bradley Hand, cursive" font-size="14" fill="#5c5c5c" text-anchor="middle" font-weight="normal">status: draft | promoted</text>
  <text x="200.0" y="182.0" font-family="Virgil GS, Virgil, Excalifont, Comic Sans MS, Bradley Hand, cursive" font-size="14" fill="#5c5c5c" text-anchor="middle" font-weight="normal">model, prompt, run id</text>
  <text x="200.0" y="203.0" font-family="Virgil GS, Virgil, Excalifont, Comic Sans MS, Bradley Hand, cursive" font-size="14" fill="#5c5c5c" text-anchor="middle" font-weight="normal">warnings, section reasons</text>
  <text x="200.0" y="224.0" font-family="Virgil GS, Virgil, Excalifont, Comic Sans MS, Bradley Hand, cursive" font-size="14" fill="#5c5c5c" text-anchor="middle" font-weight="normal">reviewed: [tags]</text>
  <rect x="420.0" y="110.0" width="280.0" height="200.0" rx="6" fill="#f3f0ff"/>
  <path d="M419.5,110.7 C512.9,110.3 605.1,108.5 699.5,110.4" fill="none" stroke="#1e1e1e" stroke-width="1.7" stroke-linecap="round"/>
  <path d="M420.0,110.4 C514.7,111.4 606.2,109.5 699.4,110.4" fill="none" stroke="#1e1e1e" stroke-width="1.7" stroke-linecap="round"/>
  <path d="M699.3,109.7 C701.0,177.8 698.5,244.8 700.2,310.7" fill="none" stroke="#1e1e1e" stroke-width="1.7" stroke-linecap="round"/>
  <path d="M699.7,109.5 C699.5,178.0 700.1,242.7 699.3,309.4" fill="none" stroke="#1e1e1e" stroke-width="1.7" stroke-linecap="round"/>
  <path d="M700.8,310.1 C607.3,311.6 512.3,308.6 419.8,309.6" fill="none" stroke="#1e1e1e" stroke-width="1.7" stroke-linecap="round"/>
  <path d="M699.3,310.7 C607.0,311.0 513.2,309.7 419.3,310.0" fill="none" stroke="#1e1e1e" stroke-width="1.7" stroke-linecap="round"/>
  <path d="M420.2,310.5 C421.1,242.2 420.7,178.1 419.4,109.9" fill="none" stroke="#1e1e1e" stroke-width="1.7" stroke-linecap="round"/>
  <path d="M420.8,310.6 C418.9,244.4 419.3,176.5 420.8,109.9" fill="none" stroke="#1e1e1e" stroke-width="1.7" stroke-linecap="round"/>
  <text x="560.0" y="137.0" font-family="Virgil GS, Virgil, Excalifont, Comic Sans MS, Bradley Hand, cursive" font-size="18" fill="#1e1e1e" text-anchor="middle" font-weight="bold">banner</text>
  <text x="560.0" y="161.0" font-family="Virgil GS, Virgil, Excalifont, Comic Sans MS, Bradley Hand, cursive" font-size="14" fill="#5c5c5c" text-anchor="middle" font-weight="normal">provenance + warnings</text>
  <text x="560.0" y="182.0" font-family="Virgil GS, Virgil, Excalifont, Comic Sans MS, Bradley Hand, cursive" font-size="14" fill="#5c5c5c" text-anchor="middle" font-weight="normal">reviewed n of m</text>
  <text x="560.0" y="203.0" font-family="Virgil GS, Virgil, Excalifont, Comic Sans MS, Bradley Hand, cursive" font-size="14" fill="#5c5c5c" text-anchor="middle" font-weight="normal">Review n components</text>
  <rect x="760.0" y="110.0" width="280.0" height="200.0" rx="6" fill="#e7f5ff"/>
  <path d="M759.8,109.4 C853.3,110.7 946.6,109.3 1039.8,110.8" fill="none" stroke="#1e1e1e" stroke-width="1.7" stroke-linecap="round"/>
  <path d="M759.3,109.6 C854.8,110.4 946.7,109.5 1040.5,110.6" fill="none" stroke="#1e1e1e" stroke-width="1.7" stroke-linecap="round"/>
  <path d="M1040.3,110.4 C1039.6,177.6 1040.9,244.0 1039.8,310.3" fill="none" stroke="#1e1e1e" stroke-width="1.7" stroke-linecap="round"/>
  <path d="M1039.7,110.7 C1039.3,176.6 1040.9,243.9 1040.2,310.1" fill="none" stroke="#1e1e1e" stroke-width="1.7" stroke-linecap="round"/>
  <path d="M1039.9,310.5 C945.1,310.2 852.5,310.5 760.2,310.5" fill="none" stroke="#1e1e1e" stroke-width="1.7" stroke-linecap="round"/>
  <path d="M1039.8,310.5 C946.2,310.5 854.1,311.1 760.6,310.3" fill="none" stroke="#1e1e1e" stroke-width="1.7" stroke-linecap="round"/>
  <path d="M759.5,310.5 C761.5,244.8 760.1,176.8 760.7,110.0" fill="none" stroke="#1e1e1e" stroke-width="1.7" stroke-linecap="round"/>
  <path d="M760.4,310.1 C760.6,244.0 760.7,175.6 760.3,109.9" fill="none" stroke="#1e1e1e" stroke-width="1.7" stroke-linecap="round"/>
  <text x="900.0" y="137.0" font-family="Virgil GS, Virgil, Excalifont, Comic Sans MS, Bradley Hand, cursive" font-size="18" fill="#1e1e1e" text-anchor="middle" font-weight="bold">review panel</text>
  <text x="900.0" y="161.0" font-family="Virgil GS, Virgil, Excalifont, Comic Sans MS, Bradley Hand, cursive" font-size="14" fill="#5c5c5c" text-anchor="middle" font-weight="normal">the editor's aside:</text>
  <text x="900.0" y="182.0" font-family="Virgil GS, Virgil, Excalifont, Comic Sans MS, Bradley Hand, cursive" font-size="14" fill="#5c5c5c" text-anchor="middle" font-weight="normal">the canvas narrows,</text>
  <text x="900.0" y="203.0" font-family="Virgil GS, Virgil, Excalifont, Comic Sans MS, Bradley Hand, cursive" font-size="14" fill="#5c5c5c" text-anchor="middle" font-weight="normal">folds by tab and section,</text>
  <text x="900.0" y="224.0" font-family="Virgil GS, Virgil, Excalifont, Comic Sans MS, Bradley Hand, cursive" font-size="14" fill="#5c5c5c" text-anchor="middle" font-weight="normal">Keep / Regenerate / Remove</text>
  <rect x="1090.0" y="110.0" width="200.0" height="200.0" rx="6" fill="#ebfbee"/>
  <path d="M1089.2,109.5 C1157.1,110.9 1223.8,110.7 1289.9,110.2" fill="none" stroke="#1e1e1e" stroke-width="1.7" stroke-linecap="round"/>
  <path d="M1090.0,109.6 C1155.8,110.6 1223.8,108.5 1289.3,109.4" fill="none" stroke="#1e1e1e" stroke-width="1.7" stroke-linecap="round"/>
  <path d="M1289.9,109.8 C1289.4,175.6 1289.0,241.8 1290.2,310.1" fill="none" stroke="#1e1e1e" stroke-width="1.7" stroke-linecap="round"/>
  <path d="M1289.6,109.9 C1289.2,178.0 1288.4,243.0 1289.4,310.5" fill="none" stroke="#1e1e1e" stroke-width="1.7" stroke-linecap="round"/>
  <path d="M1290.1,309.7 C1222.9,308.5 1157.0,308.7 1090.1,310.7" fill="none" stroke="#1e1e1e" stroke-width="1.7" stroke-linecap="round"/>
  <path d="M1289.8,309.4 C1224.4,309.7 1157.7,310.5 1090.2,310.1" fill="none" stroke="#1e1e1e" stroke-width="1.7" stroke-linecap="round"/>
  <path d="M1090.6,309.2 C1091.5,244.8 1090.3,176.2 1089.4,110.1" fill="none" stroke="#1e1e1e" stroke-width="1.7" stroke-linecap="round"/>
  <path d="M1089.8,309.9 C1090.4,242.2 1090.4,177.9 1089.6,109.7" fill="none" stroke="#1e1e1e" stroke-width="1.7" stroke-linecap="round"/>
  <text x="1190.0" y="137.0" font-family="Virgil GS, Virgil, Excalifont, Comic Sans MS, Bradley Hand, cursive" font-size="18" fill="#1e1e1e" text-anchor="middle" font-weight="bold">review route</text>
  <text x="1190.0" y="161.0" font-family="Virgil GS, Virgil, Excalifont, Comic Sans MS, Bradley Hand, cursive" font-size="14" fill="#5c5c5c" text-anchor="middle" font-weight="normal">keep, unkeep,</text>
  <text x="1190.0" y="182.0" font-family="Virgil GS, Virgil, Excalifont, Comic Sans MS, Bradley Hand, cursive" font-size="14" fill="#5c5c5c" text-anchor="middle" font-weight="normal">keep-all, unkeep-all.</text>
  <text x="1190.0" y="203.0" font-family="Virgil GS, Virgil, Excalifont, Comic Sans MS, Bradley Hand, cursive" font-size="14" fill="#5c5c5c" text-anchor="middle" font-weight="normal">The only writer of</text>
  <text x="1190.0" y="224.0" font-family="Virgil GS, Virgil, Excalifont, Comic Sans MS, Bradley Hand, cursive" font-size="14" fill="#5c5c5c" text-anchor="middle" font-weight="normal">reviewed[], and it</text>
  <text x="1190.0" y="245.0" font-family="Virgil GS, Virgil, Excalifont, Comic Sans MS, Bradley Hand, cursive" font-size="14" fill="#5c5c5c" text-anchor="middle" font-weight="normal">keeps only the tags</text>
  <text x="1190.0" y="266.0" font-family="Virgil GS, Virgil, Excalifont, Comic Sans MS, Bradley Hand, cursive" font-size="14" fill="#5c5c5c" text-anchor="middle" font-weight="normal">still on the page</text>
  <path d="M350.2,209.5 C375.2,209.5 398.5,211.7 421.0,210.0" fill="none" stroke="#5c5c5c" stroke-width="1.7" stroke-linecap="round"/>
  <path d="M349.6,210.0 C373.0,209.3 398.6,210.0 419.2,210.2" fill="none" stroke="#5c5c5c" stroke-width="1.7" stroke-linecap="round"/>
  <path d="M419.5,210.0 C415.8,207.4 412.3,206.3 407.4,203.9" fill="none" stroke="#5c5c5c" stroke-width="1.7" stroke-linecap="round"/>
  <path d="M420.5,209.8 C416.4,211.7 411.3,213.7 407.7,216.5" fill="none" stroke="#5c5c5c" stroke-width="1.7" stroke-linecap="round"/>
  <path d="M700.5,209.6 C720.6,210.4 741.0,208.5 760.1,209.7" fill="none" stroke="#1e1e1e" stroke-width="1.7" stroke-linecap="round"/>
  <path d="M700.5,210.2 C719.2,210.1 739.9,209.4 759.1,209.5" fill="none" stroke="#1e1e1e" stroke-width="1.7" stroke-linecap="round"/>
  <path d="M759.5,210.3 C755.8,208.6 752.5,205.7 747.6,203.5" fill="none" stroke="#1e1e1e" stroke-width="1.7" stroke-linecap="round"/>
  <path d="M759.9,209.9 C756.3,212.5 751.7,215.2 748.0,216.3" fill="none" stroke="#1e1e1e" stroke-width="1.7" stroke-linecap="round"/>
  <path d="M1040.4,209.9 C1055.9,211.3 1071.6,211.3 1089.6,210.6" fill="none" stroke="#1e1e1e" stroke-width="1.7" stroke-linecap="round"/>
  <path d="M1040.0,209.7 C1058.3,208.6 1073.2,210.2 1089.3,210.2" fill="none" stroke="#1e1e1e" stroke-width="1.7" stroke-linecap="round"/>
  <path d="M1090.3,210.2 C1086.5,206.9 1081.2,206.3 1077.2,203.6" fill="none" stroke="#1e1e1e" stroke-width="1.7" stroke-linecap="round"/>
  <path d="M1090.3,209.7 C1086.8,213.2 1082.2,213.5 1077.8,217.0" fill="none" stroke="#1e1e1e" stroke-width="1.7" stroke-linecap="round"/>
  <path d="M1189.5,310.2 C1190.6,329.6 1189.4,352.5 1189.9,371.5" fill="none" stroke="#2f9e44" stroke-width="1.5" stroke-linecap="round"/>
  <path d="M1189.4,309.4 C1190.3,329.4 1188.9,351.0 1190.1,372.3" fill="none" stroke="#2f9e44" stroke-width="1.5" stroke-linecap="round"/>
  <path d="M1190.1,372.0 C801.7,371.0 411.1,371.5 22.6,371.8" fill="none" stroke="#2f9e44" stroke-width="1.5" stroke-linecap="round"/>
  <path d="M1190.0,372.6 C799.4,372.6 410.4,372.4 22.1,372.2" fill="none" stroke="#2f9e44" stroke-width="1.5" stroke-linecap="round"/>
  <path d="M22.0,371.5 C21.3,331.5 21.3,291.4 21.6,249.8" fill="none" stroke="#2f9e44" stroke-width="1.5" stroke-linecap="round"/>
  <path d="M21.4,372.2 C22.7,330.4 22.6,291.1 21.4,249.5" fill="none" stroke="#2f9e44" stroke-width="1.5" stroke-linecap="round"/>
  <path d="M21.6,224.6 C22.4,218.3 23.5,214.6 21.1,210.5" fill="none" stroke="#2f9e44" stroke-width="1.7" stroke-linecap="round"/>
  <path d="M21.4,223.2 C20.2,217.9 23.8,215.4 22.9,210.3" fill="none" stroke="#2f9e44" stroke-width="1.7" stroke-linecap="round"/>
  <path d="M21.7,209.8 C20.5,213.4 17.9,217.9 15.5,222.2" fill="none" stroke="#2f9e44" stroke-width="1.7" stroke-linecap="round"/>
  <path d="M22.3,209.9 C24.0,213.4 27.0,218.5 28.9,222.4" fill="none" stroke="#2f9e44" stroke-width="1.7" stroke-linecap="round"/>
  <path d="M21.2,209.1 C31.7,210.3 41.6,209.6 49.4,209.1" fill="none" stroke="#2f9e44" stroke-width="1.7" stroke-linecap="round"/>
  <path d="M21.9,210.8 C32.9,209.9 41.7,208.0 50.2,209.9" fill="none" stroke="#2f9e44" stroke-width="1.7" stroke-linecap="round"/>
  <path d="M49.9,209.9 C45.8,207.0 41.1,204.9 38.0,203.1" fill="none" stroke="#2f9e44" stroke-width="1.7" stroke-linecap="round"/>
  <path d="M49.7,210.0 C45.4,211.7 41.1,214.0 37.2,217.0" fill="none" stroke="#2f9e44" stroke-width="1.7" stroke-linecap="round"/>
  <rect x="50.0" y="470.0" width="300.0" height="160.0" rx="6" fill="#ffffff"/>
  <path d="M50.0,470.7 C149.6,471.4 250.6,470.6 349.4,470.3" fill="none" stroke="#1e1e1e" stroke-width="1.7" stroke-linecap="round" stroke-dasharray="9 7"/>
  <path d="M49.5,469.2 C149.3,470.6 250.7,468.9 349.6,469.3" fill="none" stroke="#1e1e1e" stroke-width="1.7" stroke-linecap="round" stroke-dasharray="9 7"/>
  <path d="M349.9,469.7 C349.7,524.8 349.6,576.1 350.4,630.3" fill="none" stroke="#1e1e1e" stroke-width="1.7" stroke-linecap="round" stroke-dasharray="9 7"/>
  <path d="M350.2,469.9 C348.9,522.5 350.6,578.1 350.8,629.2" fill="none" stroke="#1e1e1e" stroke-width="1.7" stroke-linecap="round" stroke-dasharray="9 7"/>
  <path d="M350.1,630.8 C248.6,630.9 149.7,628.5 50.0,629.8" fill="none" stroke="#1e1e1e" stroke-width="1.7" stroke-linecap="round" stroke-dasharray="9 7"/>
  <path d="M350.7,629.3 C248.7,628.6 151.3,630.0 49.6,629.3" fill="none" stroke="#1e1e1e" stroke-width="1.7" stroke-linecap="round" stroke-dasharray="9 7"/>
  <path d="M49.7,629.3 C49.7,575.3 49.2,523.0 49.3,470.8" fill="none" stroke="#1e1e1e" stroke-width="1.7" stroke-linecap="round" stroke-dasharray="9 7"/>
  <path d="M49.3,629.7 C49.0,576.7 49.7,523.4 49.4,470.1" fill="none" stroke="#1e1e1e" stroke-width="1.7" stroke-linecap="round" stroke-dasharray="9 7"/>
  <text x="200.0" y="497.0" font-family="Virgil GS, Virgil, Excalifont, Comic Sans MS, Bradley Hand, cursive" font-size="18" fill="#1e1e1e" text-anchor="middle" font-weight="bold">editor autosave</text>
  <text x="200.0" y="521.0" font-family="Virgil GS, Virgil, Excalifont, Comic Sans MS, Bradley Hand, cursive" font-size="14" fill="#5c5c5c" text-anchor="middle" font-weight="normal">edits the dashboard</text>
  <text x="200.0" y="542.0" font-family="Virgil GS, Virgil, Excalifont, Comic Sans MS, Bradley Hand, cursive" font-size="14" fill="#5c5c5c" text-anchor="middle" font-weight="normal">like any other,</text>
  <text x="200.0" y="563.0" font-family="Virgil GS, Virgil, Excalifont, Comic Sans MS, Bradley Hand, cursive" font-size="14" fill="#5c5c5c" text-anchor="middle" font-weight="normal">ai_generation stripped</text>
  <path d="M199.0,310.1 C201.7,363.7 201.4,415.5 200.0,470.1" fill="none" stroke="#c92a2a" stroke-width="1.7" stroke-linecap="round" stroke-dasharray="9 7"/>
  <path d="M199.6,309.9 C199.5,363.8 200.9,418.3 200.7,469.4" fill="none" stroke="#c92a2a" stroke-width="1.7" stroke-linecap="round" stroke-dasharray="9 7"/>
  <path d="M189.4,396.8 C195.4,403.9 202.7,412.3 210.6,418.5" fill="none" stroke="#c92a2a" stroke-width="1.7" stroke-linecap="round"/>
  <path d="M188.7,418.5 C195.7,410.7 203.5,404.5 211.2,396.5" fill="none" stroke="#c92a2a" stroke-width="1.7" stroke-linecap="round"/>
  <text x="226.0" y="414.0" font-family="Virgil GS, Virgil, Excalifont, Comic Sans MS, Bradley Hand, cursive" font-size="15" fill="#c92a2a" text-anchor="start" font-weight="normal">never marks a tile</text>
  <rect x="420.0" y="470.0" width="280.0" height="160.0" rx="6" fill="#ebfbee"/>
  <path d="M419.9,469.7 C512.4,469.3 606.3,468.7 700.4,470.1" fill="none" stroke="#1e1e1e" stroke-width="1.7" stroke-linecap="round"/>
  <path d="M419.9,470.5 C514.6,470.5 607.5,470.2 700.2,470.7" fill="none" stroke="#1e1e1e" stroke-width="1.7" stroke-linecap="round"/>
  <path d="M699.8,469.4 C700.7,524.0 699.3,577.7 699.3,629.5" fill="none" stroke="#1e1e1e" stroke-width="1.7" stroke-linecap="round"/>
  <path d="M700.4,470.1 C699.2,523.9 699.3,575.3 699.2,629.3" fill="none" stroke="#1e1e1e" stroke-width="1.7" stroke-linecap="round"/>
  <path d="M700.2,629.6 C605.5,629.5 514.5,631.4 419.9,629.8" fill="none" stroke="#1e1e1e" stroke-width="1.7" stroke-linecap="round"/>
  <path d="M700.4,629.4 C606.1,628.4 513.6,631.0 420.0,629.5" fill="none" stroke="#1e1e1e" stroke-width="1.7" stroke-linecap="round"/>
  <path d="M419.4,629.7 C420.7,576.5 421.4,524.3 420.7,469.9" fill="none" stroke="#1e1e1e" stroke-width="1.7" stroke-linecap="round"/>
  <path d="M420.1,630.8 C419.8,576.5 420.9,524.7 420.2,469.4" fill="none" stroke="#1e1e1e" stroke-width="1.7" stroke-linecap="round"/>
  <text x="560.0" y="497.0" font-family="Virgil GS, Virgil, Excalifont, Comic Sans MS, Bradley Hand, cursive" font-size="18" fill="#1e1e1e" text-anchor="middle" font-weight="bold">the two exits</text>
  <text x="560.0" y="521.0" font-family="Virgil GS, Virgil, Excalifont, Comic Sans MS, Bradley Hand, cursive" font-size="14" fill="#5c5c5c" text-anchor="middle" font-weight="normal">Promote: status =</text>
  <text x="560.0" y="542.0" font-family="Virgil GS, Virgil, Excalifont, Comic Sans MS, Bradley Hand, cursive" font-size="14" fill="#5c5c5c" text-anchor="middle" font-weight="normal">promoted, provenance stays</text>
  <text x="560.0" y="563.0" font-family="Virgil GS, Virgil, Excalifont, Comic Sans MS, Bradley Hand, cursive" font-size="14" fill="#5c5c5c" text-anchor="middle" font-weight="normal">Discard: the dashboard goes</text>
  <path d="M559.1,310.2 C561.3,363.0 558.2,418.6 560.0,470.8" fill="none" stroke="#5c5c5c" stroke-width="1.7" stroke-linecap="round"/>
  <path d="M560.1,309.7 C559.6,362.2 559.1,415.5 560.5,469.5" fill="none" stroke="#5c5c5c" stroke-width="1.7" stroke-linecap="round"/>
  <path d="M560.3,470.1 C561.9,465.4 565.3,462.4 566.5,457.3" fill="none" stroke="#5c5c5c" stroke-width="1.7" stroke-linecap="round"/>
  <path d="M559.6,470.2 C558.5,465.9 554.7,461.1 553.8,457.3" fill="none" stroke="#5c5c5c" stroke-width="1.7" stroke-linecap="round"/>
  <rect x="760.0" y="470.0" width="280.0" height="160.0" rx="6" fill="#fff9db"/>
  <path d="M760.2,470.5 C854.3,469.4 947.3,471.2 1039.8,469.2" fill="none" stroke="#1e1e1e" stroke-width="1.7" stroke-linecap="round"/>
  <path d="M759.7,469.2 C853.4,470.3 945.7,469.6 1039.7,469.8" fill="none" stroke="#1e1e1e" stroke-width="1.7" stroke-linecap="round"/>
  <path d="M1040.5,470.7 C1039.9,524.0 1039.7,578.2 1040.3,630.3" fill="none" stroke="#1e1e1e" stroke-width="1.7" stroke-linecap="round"/>
  <path d="M1040.3,470.0 C1040.1,524.3 1039.6,577.0 1039.7,629.3" fill="none" stroke="#1e1e1e" stroke-width="1.7" stroke-linecap="round"/>
  <path d="M1040.3,629.7 C945.3,629.5 853.6,630.8 760.7,629.6" fill="none" stroke="#1e1e1e" stroke-width="1.7" stroke-linecap="round"/>
  <path d="M1040.7,630.6 C947.4,628.6 854.1,630.5 760.3,630.5" fill="none" stroke="#1e1e1e" stroke-width="1.7" stroke-linecap="round"/>
  <path d="M760.6,629.6 C760.8,577.0 759.1,523.4 760.8,470.1" fill="none" stroke="#1e1e1e" stroke-width="1.7" stroke-linecap="round"/>
  <path d="M760.2,630.6 C759.7,575.1 759.6,522.3 760.7,470.2" fill="none" stroke="#1e1e1e" stroke-width="1.7" stroke-linecap="round"/>
  <text x="900.0" y="497.0" font-family="Virgil GS, Virgil, Excalifont, Comic Sans MS, Bradley Hand, cursive" font-size="18" fill="#1e1e1e" text-anchor="middle" font-weight="bold">regenerate</text>
  <text x="900.0" y="521.0" font-family="Virgil GS, Virgil, Excalifont, Comic Sans MS, Bradley Hand, cursive" font-size="14" fill="#5c5c5c" text-anchor="middle" font-weight="normal">one tile or one section:</text>
  <text x="900.0" y="542.0" font-family="Virgil GS, Virgil, Excalifont, Comic Sans MS, Bradley Hand, cursive" font-size="14" fill="#5c5c5c" text-anchor="middle" font-weight="normal">the same fill and check,</text>
  <text x="900.0" y="563.0" font-family="Virgil GS, Virgil, Excalifont, Comic Sans MS, Bradley Hand, cursive" font-size="14" fill="#5c5c5c" text-anchor="middle" font-weight="normal">replaced in place</text>
  <path d="M900.4,309.7 C899.5,361.8 900.8,416.9 900.8,469.4" fill="none" stroke="#5c5c5c" stroke-width="1.7" stroke-linecap="round"/>
  <path d="M899.3,310.3 C899.2,362.4 900.5,418.3 900.5,469.4" fill="none" stroke="#5c5c5c" stroke-width="1.7" stroke-linecap="round"/>
  <path d="M900.2,469.9 C901.3,466.0 905.0,462.5 906.5,457.7" fill="none" stroke="#5c5c5c" stroke-width="1.7" stroke-linecap="round"/>
  <path d="M900.5,469.7 C898.6,465.5 895.2,462.0 893.0,457.3" fill="none" stroke="#5c5c5c" stroke-width="1.7" stroke-linecap="round"/>
  <text x="560.0" y="668.0" font-family="Virgil GS, Virgil, Excalifont, Comic Sans MS, Bradley Hand, cursive" font-size="15" fill="#5c5c5c" text-anchor="middle" font-weight="normal">promoting with tiles unjudged asks first</text>
  <text x="900.0" y="668.0" font-family="Virgil GS, Virgil, Excalifont, Comic Sans MS, Bradley Hand, cursive" font-size="15" fill="#5c5c5c" text-anchor="middle" font-weight="normal">the boxes stay where they were</text>
</svg>
