<svg
  version="1.1"
  width="100%"
  height="100%"
  viewBox="0 0 823 809"
  xmlns="http://www.w3.org/2000/svg">
  <g>
    <path
      id="shape-1"
      style="fill:#f1c547;"
      d="m 717.26738,671.84908 -20.24687,-20.43344 19.5228,19.25 c 10.73753,10.5875 19.93967,19.25 20.44919,19.25 0.50952,0 2.0804,-1.0125 3.49085,-2.25 l 2.56445,-2.25 -2.5,3 c -1.375,1.65 -2.62005,3.19505 -2.76678,3.43344 -0.14672,0.2384 -9.37786,-8.7616 -20.51364,-20 z m 27.38081,10.36204 c 0.72815,-1.21249 1.53915,-1.98927 1.80223,-1.72619 0.26308,0.26308 -0.33267,1.25511 -1.3239,2.20452 -1.72194,1.64929 -1.74325,1.62798 -0.47833,-0.47833 z m -239.23826,-3.43419 c -0.0758,-0.74871 -0.41333,-31.62409 -0.75,-68.61195 -0.41907,-46.03999 -0.28598,-67.25046 0.42196,-67.25 1.83573,10e-4 94.46591,93.55313 94.46591,95.40595 0,2.39002 -2.83858,4.65132 -13.5,10.75449 -23.77397,13.60951 -32.00461,17.13032 -60.06246,25.69289 -16.63662,5.07708 -20.39308,5.80894 -20.57541,4.00862 z m 242.13787,-0.23885 c 0,-0.20765 0.7875,-0.99515 1.75,-1.75 1.58606,-1.24387 1.62143,-1.2085 0.37756,0.37756 -1.30637,1.66575 -2.12756,2.19548 -2.12756,1.37244 z m 4.10039,-5.32696 c 0.72815,-1.21249 1.53915,-1.98927 1.80223,-1.72619 0.26308,0.26308 -0.33267,1.25511 -1.3239,2.20452 -1.72194,1.64929 -1.74325,1.62798 -0.47833,-0.47833 z m 14.89961,-22.29548 c 0,-0.55 0.47656,-1 1.05902,-1 0.58246,0 0.7809,0.45 0.44098,1 -0.33992,0.55 -0.81648,1 -1.05902,1 -0.24254,0 -0.44098,-0.45 -0.44098,-1 z m -75.05383,-4.75 -3.44617,-3.75 3.75,3.44617 c 3.49042,3.20761 4.20979,4.05383 3.44617,4.05383 -0.16711,0 -1.85461,-1.6875 -3.75,-3.75 z m 77.05383,1.86078 c 0,-0.48906 0.92226,-1.95156 2.04946,-3.25 l 2.04947,-2.36078 -1.57515,3.25 c -1.54996,3.19805 -2.52378,4.10897 -2.52378,2.36078 z m -84.07569,-8.86078 -2.42431,-2.75 2.75,2.42431 c 1.5125,1.33338 2.75,2.57088 2.75,2.75 0,0.78428 -0.8098,0.14598 -3.07569,-2.42431 z m 89.07569,0.75 c 0.5887,-1.1 1.29537,-2 1.57037,-2 0.275,0 0.0183,0.9 -0.57037,2 -0.5887,1.1 -1.29537,2 -1.57037,2 -0.275,0 -0.0183,-0.9 0.57037,-2 z m 2,-3.94098 c 0,-0.51754 0.44485,-1.21592 0.98855,-1.55194 0.56686,-0.35034 0.7345,0.0511 0.39301,0.94098 -0.66479,1.73242 -1.38156,2.04939 -1.38156,0.61096 z m -99.07569,-4.80902 -2.42431,-2.75 2.75,2.42431 c 1.5125,1.33338 2.75,2.57088 2.75,2.75 0,0.78428 -0.8098,0.14598 -3.07569,-2.42431 z m 102.07569,-0.25 c 0.5887,-1.1 1.29537,-2 1.57037,-2 0.275,0 0.0183,0.9 -0.57037,2 -0.5887,1.1 -1.29537,2 -1.57037,2 -0.275,0 -0.0183,-0.9 0.57037,-2 z m 2,-3.94098 c 0,-0.51754 0.44485,-1.21592 0.98855,-1.55194 0.56686,-0.35034 0.7345,0.0511 0.39301,0.94098 -0.66479,1.73242 -1.38156,2.04939 -1.38156,0.61096 z m -112.07569,-3.80902 -2.42431,-2.75 2.75,2.42431 c 1.5125,1.33338 2.75,2.57088 2.75,2.75 0,0.78428 -0.8098,0.14598 -3.07569,-2.42431 z m 114.07569,-0.19098 c 0,-0.51754 0.44485,-1.21592 0.98855,-1.55194 0.56686,-0.35034 0.7345,0.0511 0.39301,0.94098 -0.66479,1.73242 -1.38156,2.04939 -1.38156,0.61096 z m 2.56429,-4.35215 c 0.37553,-0.98622 0.93469,-1.54122 1.24258,-1.23333 0.30789,0.30789 6.4e-4,1.11479 -0.68278,1.79313 -0.98762,0.98026 -1.10248,0.8654 -0.5598,-0.5598 z m -128.10188,-6.95687 -4.96241,-5.25 5.25,4.96241 c 4.87839,4.61116 5.7086,5.53759 4.96241,5.53759 -0.15818,0 -2.52068,-2.3625 -5.25,-5.25 z m 130.56822,1.75 c 0,-0.55 0.43621,-1.675 0.96937,-2.5 0.53316,-0.825 0.96937,-1.05 0.96937,-0.5 0,0.55 -0.43621,1.675 -0.96937,2.5 -0.53316,0.825 -0.96937,1.05 -0.96937,0.5 z m 1.96937,-5.44098 c 0,-0.51754 0.44485,-1.21592 0.98855,-1.55194 0.56686,-0.35034 0.7345,0.0511 0.39301,0.94098 -0.66479,1.73242 -1.38156,2.04939 -1.38156,0.61096 z m -140.59501,-4.30902 -1.90499,-2.25 2.25,1.90499 c 2.11444,1.79022 2.70524,2.59501 1.90499,2.59501 -0.18976,0 -1.20226,-1.0125 -2.25,-2.25 z m 142.62564,0.75 c 0,-0.55 0.43621,-1.675 0.96937,-2.5 0.53316,-0.825 0.96937,-1.05 0.96937,-0.5 0,0.55 -0.43621,1.675 -0.96937,2.5 -0.53316,0.825 -0.96937,1.05 -0.96937,0.5 z m -153.03063,-11 c -4.09747,-4.125 -7.22494,-7.5 -6.94994,-7.5 0.275,0 3.85247,3.375 7.94994,7.5 4.09747,4.125 7.22494,7.5 6.94994,7.5 -0.275,0 -3.85247,-3.375 -7.94994,-7.5 z m 158.0856,-1.5 c -0.0302,-0.825 0.38124,-2.175 0.9144,-3 1.18132,-1.82797 1.18132,-0.24909 0,2.5 -0.56668,1.31874 -0.87815,1.48906 -0.9144,0.5 z m 1.94503,-5.5 c 0,-0.55 0.43621,-1.675 0.96937,-2.5 0.53316,-0.825 0.96937,-1.05 0.96937,-0.5 0,0.55 -0.43621,1.675 -0.96937,2.5 -0.53316,0.825 -0.96937,1.05 -0.96937,0.5 z m -173.15819,-6.25 c -1.24387,-1.58606 -1.2085,-1.62143 0.37756,-0.37756 1.66575,1.30637 2.19548,2.12756 1.37244,2.12756 -0.20765,0 -0.99515,-0.7875 -1.75,-1.75 z m 175.74877,-1.75 c 0.35677,-1.65 1.04414,-3.675 1.52747,-4.5 0.56235,-0.95986 0.64521,-0.41973 0.23011,1.5 -0.35677,1.65 -1.04414,3.675 -1.52747,4.5 -0.56235,0.95986 -0.64521,0.41973 -0.23011,-1.5 z m -182.16826,-4.75 -3.95295,-4.25 4.25,3.95295 c 3.95246,3.6762 4.70953,4.54705 3.95295,4.54705 -0.16338,0 -2.07588,-1.9125 -4.25,-4.25 z m 184.56236,-4.33333 c 0.008,-1.05417 0.47209,-2.59167 1.03038,-3.41667 0.74131,-1.09546 0.83408,-0.69092 0.34401,1.5 -0.82247,3.67693 -1.39483,4.47511 -1.37439,1.91667 z m -192.57822,-3.66667 -2.93709,-3.25 3.25,2.93709 c 3.02946,2.73778 3.70965,3.56291 2.93709,3.56291 -0.1721,0 -1.6346,-1.4625 -3.25,-3.25 z m 194.64186,-4.33333 c 0.048,-1.16495 0.28494,-1.4019 0.60416,-0.60417 0.28887,0.72187 0.25335,1.58438 -0.0789,1.91667 -0.33229,0.33229 -0.56864,-0.25834 -0.52522,-1.3125 z m -201.20651,-2.16667 c -1.24387,-1.58606 -1.2085,-1.62143 0.37756,-0.37756 0.9625,0.75485 1.75,1.54235 1.75,1.75 0,0.82304 -0.82119,0.29331 -2.12756,-1.37244 z m 202.20651,-1.83333 c 0.048,-1.16495 0.28494,-1.4019 0.60416,-0.60417 0.28887,0.72187 0.25335,1.58438 -0.0789,1.91667 -0.33229,0.33229 -0.56864,-0.25834 -0.52522,-1.3125 z m 2.12041,-6.91667 c 0,-1.1 0.36029,-3.125 0.80064,-4.5 0.63397,-1.97958 0.80064,-2.08367 0.80064,-0.5 0,1.1 -0.36029,3.125 -0.80064,4.5 -0.63397,1.97958 -0.80064,2.08367 -0.80064,0.5 z m 1.97061,-9 c -0.0162,-1.1 0.35734,-2.9 0.83003,-4 1.09501,-2.54822 1.09501,0.0808 0,3.5 -0.64363,2.00973 -0.8064,2.10779 -0.83003,0.5 z m -230.66997,-5.5 c -0.33992,-0.55 -0.14148,-1 0.44098,-1 0.58246,0 1.05902,0.45 1.05902,1 0,0.55 -0.19844,1 -0.44098,1 -0.24254,0 -0.7191,-0.45 -1.05902,-1 z m 232.67594,-4.5 c -0.0334,-1.1 0.31164,-3.8 0.76669,-6 0.69564,-3.36313 0.82684,-3.52234 0.82406,-1 -0.004,3.5028 -1.49744,10.07517 -1.59075,7 z M 560.7857,516.65391 c -8.38084,-8.39395 -15.2379,-15.59395 -15.2379,-16 0,-0.40605 22.3875,-0.63011 49.75,-0.49791 l 49.75,0.24036 -49.47836,0.26919 -49.47836,0.2692 15.46626,15.49045 c 8.50644,8.51974 15.24126,15.49044 14.96626,15.49044 -0.275,0 -7.35705,-6.86778 -15.7379,-15.26173 z m 254.01428,-2.23827 c 0.0111,-2.2 0.21589,-2.98225 0.45508,-1.73834 0.23919,1.24391 0.23011,3.04391 -0.0202,4 -0.25029,0.95609 -0.446,-0.0617 -0.4349,-2.26166 z m 0.70519,-9 -0.45737,-5 -67,-0.51064 -67,-0.51064 66.62756,-0.23936 c 56.67771,-0.20362 66.8043,-0.0264 67.8111,1.18674 0.65462,0.78876 1.02547,3.35847 0.82981,5.75 l -0.35374,4.3239 z" />
    <path
      id="shape-2"
      style="fill:#c064d3;"
      d="m 288.43346,441.89811 c -9.68788,-0.38321 -18.12538,-1.01259 -18.75,-1.39863 -1.59805,-0.98764 -1.42285,-2.67954 0.79805,-7.70672 1.06355,-2.40742 3.33799,-9.77712 5.05432,-16.37712 4.07257,-15.66067 10.65686,-32.21722 18.49237,-46.5 3.46989,-6.325 7.48887,-13.8625 8.93109,-16.75 1.44221,-2.8875 3.26626,-5.25 4.05344,-5.25 0.78718,0 4.2671,2.29276 7.73315,5.09501 6.61267,5.34625 88.79342,87.85664 88.79881,89.15499 0.004,0.91342 -90.57771,0.7029 -115.11123,-0.26753 z m 280.38337,0.32454 c 0.97297,-0.25354 2.32297,-0.23687 3,0.0371 0.67703,0.27393 -0.11903,0.48137 -1.76903,0.46099 -1.65,-0.0204 -2.20394,-0.2445 -1.23097,-0.49804 z m 16.01114,-0.0433 c 2.6291,-0.20668 6.6791,-0.20418 9,0.006 2.32091,0.20972 0.16983,0.37882 -4.78017,0.37577 -4.95,-0.003 -6.84892,-0.17464 -4.21983,-0.38131 z M 384.5478,339.83829 C 255.03856,209.66566 253.56079,208.14975 255.00458,206.95151 c 6.49448,-5.38994 55.96103,-37.10734 65.2252,-41.82167 23.6484,-12.03415 46.45306,-20.36964 74.31802,-27.1645 14.30022,-3.4871 49.89602,-9.4869 50.81784,-8.56552 0.98108,0.9806 1.47888,271.5424 0.49931,271.3821 -0.44943,-0.0735 -28.04215,-27.49818 -61.31715,-60.94363 z m 119.22271,44.82735 0.2227,-16.25 0.30359,15.92727 0.30359,15.92728 4.2237,-3.92728 4.22371,-3.92727 -3.95295,4.25 c -2.17412,2.3375 -4.31162,4.25 -4.75,4.25 -0.43838,0 -0.69683,-7.3125 -0.57434,-16.25 z m 11.77729,4.93709 c 0,-0.1721 1.4625,-1.6346 3.25,-3.25 l 3.25,-2.93709 -2.93709,3.25 c -2.73778,3.02946 -3.56291,3.70965 -3.56291,2.93709 z m 83,-1.06465 c 0,-0.20765 0.7875,-0.99515 1.75,-1.75 1.58606,-1.24387 1.62143,-1.2085 0.37756,0.37756 -1.30637,1.66575 -2.12756,2.19548 -2.12756,1.37244 z m 8.5,-8.62244 c 2.70865,-2.75 5.14982,-5 5.42482,-5 0.275,0 -1.71617,2.25 -4.42482,5 -2.70865,2.75 -5.14982,5 -5.42482,5 -0.275,0 1.71617,-2.25 4.42482,-5 z m -84.11619,2.5 c 2.63175,-3.2679 76.83788,-77.61165 77.15322,-77.29631 0.21144,0.21144 -17.24274,17.91461 -38.78706,39.34038 -21.54432,21.42576 -38.8091,38.50593 -38.36616,37.95593 z m 95.61619,-13.87756 c 0,-0.20765 0.7875,-0.99515 1.75,-1.75 1.58606,-1.24387 1.62143,-1.2085 0.37756,0.37756 -1.30637,1.66575 -2.12756,2.19548 -2.12756,1.37244 z m 4,-4 c 0,-0.20765 0.7875,-0.99515 1.75,-1.75 1.58606,-1.24387 1.62143,-1.2085 0.37756,0.37756 -1.30637,1.66575 -2.12756,2.19548 -2.12756,1.37244 z m -20.97994,-62.14661 c 0.69572,-0.83829 1.47088,-1.31823 1.72258,-1.06653 0.69349,0.6935 -0.71555,2.5907 -1.9241,2.5907 -0.6631,0 -0.58723,-0.57378 0.20152,-1.52417 z m 3.97994,-3.97583 c 0.68469,-0.825 1.69489,-1.5 2.24489,-1.5 0.55783,0 0.44954,0.66326 -0.24489,1.5 -0.68469,0.825 -1.69489,1.5 -2.24489,1.5 -0.55783,0 -0.44954,-0.66326 0.24489,-1.5 z m 4.02006,-4.02417 c 0.69572,-0.83829 1.47088,-1.31823 1.72258,-1.06653 0.69349,0.6935 -0.71555,2.5907 -1.9241,2.5907 -0.6631,0 -0.58723,-0.57378 0.20152,-1.52417 z m 83.97994,-1.85339 c 0,-0.20765 0.7875,-0.99515 1.75,-1.75 1.58606,-1.24387 1.62143,-1.2085 0.37756,0.37756 -1.30637,1.66575 -2.12756,2.19548 -2.12756,1.37244 z m 4.48071,-86.3546 85.97925,-86.23216 -4.96694,-5.26784 -4.96693,-5.26784 5.48064,5.25559 5.48064,5.25559 -86.49296,86.24441 -86.49295,86.24441 z m -0.48071,82.3546 c 0,-0.20765 0.7875,-0.99515 1.75,-1.75 1.58606,-1.24387 1.62143,-1.2085 0.37756,0.37756 -1.30637,1.66575 -2.12756,2.19548 -2.12756,1.37244 z m 5,-5 c 0,-0.20765 0.7875,-0.99515 1.75,-1.75 1.58606,-1.24387 1.62143,-1.2085 0.37756,0.37756 -1.30637,1.66575 -2.12756,2.19548 -2.12756,1.37244 z m 7,-6.89747 c 0,-0.15126 3.4875,-3.63876 7.75,-7.75 l 7.75,-7.47497 -7.47497,7.75 c -6.94259,7.19803 -8.02503,8.20627 -8.02503,7.47497 z m 26.92431,-20.47497 -2.42431,-2.75 2.75,2.42431 c 1.5125,1.33338 2.75,2.57088 2.75,2.75 0,0.78428 -0.8098,0.14598 -3.07569,-2.42431 z M 505.00584,74.915643 c 0,-23.375 0.13089,-32.9375 0.29087,-21.25 0.15998,11.6875 0.15998,30.8125 0,42.5 -0.15998,11.687497 -0.29087,2.125 -0.29087,-21.25 z m 265.46627,32.249997 -2.42431,-2.75 2.75,2.42431 c 1.5125,1.33338 2.75,2.57088 2.75,2.75 0,0.78428 -0.8098,0.14598 -3.07569,-2.42431 z m -10.05187,-7.999997 c -1.24387,-1.58606 -1.2085,-1.62143 0.37756,-0.37756 0.9625,0.75485 1.75,1.542347 1.75,1.749997 0,0.82304 -0.82119,0.29331 -2.12756,-1.372437 z m -4.46745,-3.5 -1.90499,-2.25 2.25,1.90499 c 1.2375,1.04774 2.25,2.06024 2.25,2.25 0,0.80025 -0.80479,0.20946 -2.59501,-1.90499 z m -4.53255,-3.5 c -1.24387,-1.58606 -1.2085,-1.62143 0.37756,-0.37756 0.9625,0.75485 1.75,1.54235 1.75,1.75 0,0.82304 -0.82119,0.29331 -2.12756,-1.37244 z m -11.87244,-8.25 c -0.90129,-0.58246 -1.02463,-0.97549 -0.30902,-0.98469 0.65504,-0.008 1.4691,0.43469 1.80902,0.98469 0.7673,1.24153 0.42112,1.24153 -1.5,0 z m -24.55887,-16.55517 c -1.86402,-1.49339 -1.85176,-1.51185 0.30887,-0.46481 1.2375,0.59969 2.25,1.29951 2.25,1.55516 0,0.76522 -0.51861,0.54424 -2.55887,-1.09035 z m -32.69113,-18.0168 c -3.73844,-2.02814 -3.51088,-2.87286 0.25,-0.92803 1.65,0.85325 3,1.7648 3,2.02568 0,0.6435 -0.10745,0.60721 -3.25,-1.09765 z m -10.24292,-5.41658 c -0.35034,-0.56686 0.0511,-0.7345 0.94098,-0.39301 1.73242,0.66479 2.04939,1.38156 0.61096,1.38156 -0.51754,0 -1.21592,-0.44485 -1.55194,-0.98855 z m -16,-7 c -0.35034,-0.56686 0.0511,-0.7345 0.94098,-0.39301 1.73242,0.66479 2.04939,1.38156 0.61096,1.38156 -0.51754,0 -1.21592,-0.44485 -1.55194,-0.98855 z M 583.3603,13.232533 c 0.72187,-0.28887 1.58438,-0.25335 1.91667,0.0789 0.33229,0.33229 -0.25834,0.56864 -1.3125,0.52522 -1.16495,-0.048 -1.4019,-0.28494 -0.60417,-0.60417 z M 560.81683,9.2226533 c 0.97297,-0.25354 2.32297,-0.23687 3,0.037 0.67703,0.27393 -0.11903,0.48137 -1.76903,0.46099 -1.65,-0.0204 -2.20394,-0.2445 -1.23097,-0.49804 z m -25.45653,-3.99012 c 0.72187,-0.28887 1.58438,-0.25335 1.91667,0.0789 0.33229,0.33229 -0.25834,0.56864 -1.3125,0.52522 -1.16495,-0.048 -1.4019,-0.28494 -0.60417,-0.60416 z m -8,-1 c 0.72187,-0.28887 1.58438,-0.25335 1.91667,0.0789 0.33229,0.33229 -0.25834,0.56864 -1.3125,0.52522 -1.16495,-0.048 -1.4019,-0.28494 -0.60417,-0.60416 z m -12.0625,-1.97917 c 0.6875,-0.27741 1.8125,-0.27741 2.5,0 0.6875,0.27741 0.125,0.50439 -1.25,0.50439 -1.375,0 -1.9375,-0.22698 -1.25,-0.50439 z" />
    <path
      id="shape-3"
      style="fill:#58b3cb;"
      d="M 113.49621,769.66388 C 78.940963,728.97057 56.880863,692.68903 38.254153,645.91564 c -15.47569,-38.86088 -28.1554,-91.45187 -30.2580997,-125.5 -0.37363,-6.05 -1.30824,-12.53159 -2.07691,-14.40354 -0.76868,-1.87195 -1.16017,-3.64096 -0.87,-3.93114 0.29018,-0.29017 2.88359,-0.86323 5.7631297,-1.27345 7.03806,-1.00266 391.485357,-1.10567 392.103757,-0.10507 0.56894,0.92056 -277.38634,280.21505 -278.86823,280.21184 -0.55,-10e-4 -5.29821,-5.06387 -10.55159,-11.2504 z M 560.81155,442.19806 c 1.52006,-0.22986 3.77006,-0.22371 5,0.0136 1.22994,0.23736 -0.0137,0.42542 -2.76375,0.41792 -2.75,-0.008 -3.75631,-0.20172 -2.23625,-0.43157 z m 45.03535,-0.0277 c 4.83951,-0.18371 12.48951,-0.18277 17,0.002 4.5105,0.18485 0.5509,0.33516 -8.7991,0.33401 -9.35,-10e-4 -13.0404,-0.1524 -8.2009,-0.3361 z m 6.7009,-67.63228 c 0,-0.20765 0.7875,-0.99515 1.75,-1.75 1.58606,-1.24387 1.62143,-1.2085 0.37756,0.37756 -1.30637,1.66575 -2.12756,2.19548 -2.12756,1.37244 z m 16.95821,-16.87244 c 2.45201,-2.6125 4.58951,-4.75 4.75,-4.75 0.75088,0 -0.043,0.89783 -4.45821,5.04179 l -4.75,4.45821 z m 77.54179,-78.75 c 0.99549,-1.1 2.03498,-2 2.30998,-2 0.275,0 -0.31449,0.9 -1.30998,2 -0.99549,1.1 -2.03498,2 -2.30998,2 -0.275,0 0.31449,-0.9 1.30998,-2 z m 25.23333,-24.12409 c 0.67834,-0.68342 1.48524,-0.99067 1.79313,-0.68278 0.30789,0.30789 -0.24711,0.86705 -1.23333,1.24258 -1.4252,0.54268 -1.54006,0.42782 -0.5598,-0.5598 z" />
    <path
      id="shape-4"
      style="fill:#6279f0;"
      d="m 546.79847,441.77355 c 0.7255,-1.86838 184.25528,-185.88372 185.92028,-186.41217 1.22765,-0.38964 2.74903,0.0688 4.0293,1.21413 5.0723,4.5377 25.04192,33.34007 34.55579,49.84013 17.89144,31.02941 31.65965,71.00301 38.65795,112.23663 3.26501,19.23725 3.32956,22.8926 0.42057,23.81588 -2.72844,0.86597 -263.9226,0.17767 -263.58389,-0.6946 z" />
    <path
      id="shape-5"
      style="fill:#ee9644;"
      d="m 641.22368,595.50718 -94.82413,-94.34674 98.32413,-0.69009 c 54.07826,-0.37955 114.52412,-0.54713 134.32412,-0.3724 l 36,0.31769 -0.202,8.5 c -0.33098,13.92743 -1.95176,23.65225 -7.83319,47 -1.45475,5.775 -3.0187,12.075 -3.47544,14 -2.24639,9.46783 -7.27404,23.81042 -12.61944,36 -5.45416,12.43762 -17.04871,34.40864 -20.52031,38.88486 -1.01729,1.31167 -1.84962,2.99917 -1.84962,3.75 0,0.75083 -0.45,1.36514 -1,1.36514 -0.55,0 -1,0.6034 -1,1.34089 0,1.15815 -11.23944,18.27571 -12.90823,19.65911 -0.33173,0.275 -1.94299,2.3 -3.58057,4.5 -7.041,9.45918 -11.52746,14.50514 -12.86479,14.46914 -0.63053,-0.017 -43.81727,-42.48689 -95.97053,-94.3776 z" />
    <path
      id="shape-6"
      style="fill:#7d5dec;"
      d="M 504.86988,202.38397 C 505.1851,93.466553 505.71057,3.6550433 506.0376,2.8028333 c 0.52928,-1.3793 1.55092,-1.40126 9.30239,-0.19997 4.7893,0.74223 13.43281,1.97066 19.20781,2.72984 26.1825,3.44199 53.90969,8.8678597 69.5,13.6002897 3.3,1.00172 10.05,3.01027 15,4.46345 8.58601,2.52062 28.47974,9.80021 37,13.53919 2.2,0.96543 6.475,2.79412 9.5,4.06374 5.04378,2.11693 21.25522,10.28742 33.5,16.88384 9.24087,4.97818 37.82051,23.06858 39.5,25.00279 0.275,0.31671 1.82414,1.42008 3.44253,2.45194 3.15173,2.00949 19.1477,14.27546 26.55747,20.364707 7.50698,6.16912 15.06971,13.50664 14.7766,14.33654 -0.15213,0.43072 -46.4016,47.05978 -102.7766,103.62013 -56.375,56.56035 -117.20711,117.66885 -135.18247,135.79666 -17.97537,18.12781 -34.56935,34.75966 -36.87553,36.95966 l -4.19305,4 z" />
    <path
      id="shape-7"
      style="fill:#a1d44d;"
      d="m 434.5478,808.30458 c -3.025,-0.7369 -15.90204,-3.35063 -28.61566,-5.80829 -52.57075,-10.1624 -85.68302,-25.37067 -138.35604,-63.5461 -5.20943,-3.7756 -9.62804,-7.33378 -9.81914,-7.90707 -0.4096,-1.2288 184.78315,-187.19495 186.37647,-187.15482 2.14241,0.054 2.8792,240.17274 0.80018,260.77734 -0.60232,5.96948 -0.69111,6.00059 -10.38581,3.63894 z" />
  </g>
</svg>
